<svg width="499" height="380" viewBox="0 0 499 380" fill="none" xmlns="http://www.w3.org/2000/svg">
<g clip-path="url(#clip0_19_62)">
<path d="M367.876 261.341C367.868 283.309 361.752 304.842 350.212 323.535C338.673 342.229 322.163 357.346 302.528 367.198C301.523 367.704 300.507 368.195 299.482 368.672C272.978 380.971 242.873 383.076 214.916 374.584C212.172 373.746 209.472 372.813 206.814 371.785C182.513 362.385 161.991 345.233 148.429 322.986C134.866 300.74 129.02 274.641 131.796 248.734C134.573 222.828 145.817 198.561 163.786 179.693C181.755 160.825 205.446 148.411 231.187 144.373C237.245 143.436 243.367 142.966 249.498 142.968C314.877 142.968 367.876 195.964 367.876 261.341Z" fill="#F2F2F2"/>
<path d="M376.463 278.212C394.11 259.052 403.19 230.367 393.676 206.119C379.657 230.734 357.384 249.596 330.796 259.37C320.528 263.102 308.72 266.184 303.143 275.577C299.672 281.422 299.426 288.738 300.999 295.351C302.572 301.964 305.803 308.045 309.001 314.043L309.021 315.74C334.013 308.395 358.816 297.371 376.463 278.212Z" fill="#E6E6E6"/>
<path d="M393.145 206.249C390.149 227.6 380.502 247.464 365.573 263.02C362.355 266.334 358.801 269.415 354.694 271.576C350.674 273.653 346.171 274.615 341.654 274.363C337.437 274.213 333.141 273.571 328.961 274.448C324.555 275.373 321.069 278.218 318.807 282.055C316.04 286.75 315.125 292.159 314.414 297.48C313.624 303.388 312.898 309.537 309.524 314.622C309.115 315.238 310.095 315.836 310.503 315.221C316.373 306.374 314.395 295.078 318.352 285.54C320.199 281.089 323.398 277.168 328.185 275.82C332.37 274.641 336.801 275.299 341.069 275.489C345.551 275.687 349.818 275.137 353.921 273.239C358.119 271.297 361.8 268.349 365.09 265.132C372.494 257.783 378.696 249.315 383.47 240.039C388.977 229.483 392.637 218.062 394.293 206.272C394.395 205.542 393.246 205.524 393.145 206.249Z" fill="white"/>
<path d="M370.675 258.294C373.625 260.445 377.243 261.476 380.884 261.205C384.525 260.934 387.95 259.377 390.549 256.814C391.073 256.293 390.289 255.454 389.764 255.975C387.348 258.367 384.157 259.817 380.767 260.062C377.376 260.308 374.009 259.334 371.274 257.315C370.679 256.877 370.083 257.859 370.675 258.294Z" fill="white"/>
<path d="M343.782 274.721C342.56 267.359 344.158 259.808 348.256 253.572C348.663 252.954 347.683 252.356 347.277 252.973C343.024 259.47 341.377 267.332 342.666 274.99C342.789 275.72 343.904 275.447 343.782 274.721Z" fill="white"/>
<path d="M387.458 229.373C386.143 228.779 384.997 227.868 384.121 226.721C383.246 225.574 382.669 224.228 382.442 222.803C382.328 222.072 381.213 222.345 381.326 223.072C381.584 224.645 382.223 226.131 383.187 227.4C384.152 228.669 385.412 229.683 386.859 230.352C386.99 230.427 387.145 230.449 387.291 230.413C387.438 230.378 387.566 230.288 387.648 230.162C387.727 230.032 387.751 229.876 387.716 229.729C387.68 229.581 387.588 229.453 387.458 229.373Z" fill="white"/>
<path d="M309.876 178.622C309.934 179.08 309.993 179.539 310.044 180.004C310.794 186.172 311.042 192.391 310.786 198.599C310.774 199.079 310.754 199.566 310.728 200.045C309.95 214.995 306.403 229.672 300.268 243.328C297.821 248.759 294.965 253.997 291.724 258.996C287.247 265.898 281.844 273.027 279.965 280.777C279.76 281.583 279.605 282.402 279.501 283.227L306.95 315.632C307.049 315.675 307.141 315.724 307.241 315.766L308.278 317.11C308.463 316.864 308.65 316.605 308.835 316.359C308.943 316.216 309.045 316.067 309.153 315.925C309.223 315.827 309.293 315.73 309.361 315.646C309.385 315.614 309.408 315.581 309.424 315.555C309.493 315.472 309.548 315.387 309.609 315.309C310.657 313.863 311.697 312.407 312.728 310.941C312.735 310.935 312.735 310.935 312.737 310.921C320.566 299.731 327.529 287.789 332.459 275.17C332.607 274.79 332.763 274.405 332.899 274.01C335.089 268.31 336.81 262.44 338.044 256.459C338.71 253.182 339.208 249.873 339.539 246.546C340.377 237.946 339.857 229.269 337.998 220.831C334.29 204.011 325.243 188.563 310.973 179.317C310.608 179.081 310.249 178.852 309.876 178.622Z" fill="#E6E6E6"/>
<path d="M309.527 179.043C319.99 197.894 324.248 219.563 321.694 240.971C321.119 245.554 320.137 250.153 318.159 254.352C316.2 258.431 313.184 261.91 309.425 264.428C305.968 266.847 302.151 268.921 299.342 272.138C296.381 275.529 295.31 279.899 295.815 284.324C296.432 289.739 298.958 294.609 301.594 299.286C304.521 304.478 307.643 309.825 308.011 315.916C308.056 316.654 309.198 316.542 309.154 315.805C308.514 305.207 300.133 297.379 297.55 287.381C296.345 282.715 296.538 277.659 299.548 273.7C302.181 270.239 306.115 268.097 309.637 265.679C313.335 263.139 316.41 260.131 318.543 256.145C320.726 252.067 321.89 247.497 322.58 242.949C324.067 232.623 323.921 222.128 322.147 211.847C320.188 200.103 316.234 188.781 310.457 178.37C310.099 177.726 309.171 178.403 309.527 179.043Z" fill="white"/>
<path d="M322.922 234.126C326.572 234.067 330.083 232.712 332.826 230.304C335.569 227.895 337.367 224.59 337.899 220.979C338.004 220.247 336.873 220.05 336.768 220.782C336.279 224.146 334.604 227.225 332.044 229.462C329.485 231.699 326.21 232.948 322.811 232.983C322.072 232.992 322.188 234.134 322.922 234.126Z" fill="white"/>
<path d="M311.34 263.433C305.932 258.291 302.661 251.299 302.179 243.852C302.132 243.114 300.989 243.227 301.036 243.963C301.552 251.712 304.971 258.981 310.611 264.319C311.149 264.828 311.875 263.939 311.34 263.433Z" fill="white"/>
<path d="M318.91 200.93C317.502 201.247 316.038 201.21 314.648 200.821C313.259 200.433 311.987 199.705 310.949 198.704C310.417 198.189 309.691 199.079 310.219 199.59C311.372 200.691 312.777 201.493 314.311 201.926C315.846 202.358 317.463 202.409 319.021 202.072C319.17 202.053 319.307 201.977 319.403 201.861C319.498 201.745 319.546 201.596 319.537 201.446C319.521 201.294 319.447 201.155 319.329 201.059C319.212 200.962 319.061 200.916 318.91 200.93Z" fill="white"/>
<path d="M134.951 309.503C120.872 294.217 113.627 271.331 121.218 251.986C132.403 271.624 150.173 286.673 171.386 294.471C179.578 297.449 188.999 299.907 193.448 307.402C196.217 312.065 196.414 317.902 195.159 323.178C193.904 328.454 191.326 333.306 188.774 338.091L188.758 339.445C168.819 333.585 149.031 324.79 134.951 309.503Z" fill="#E6E6E6"/>
<path d="M121.642 252.089C124.032 269.124 131.729 284.972 143.639 297.383C146.156 300.101 149.085 302.405 152.319 304.21C155.526 305.867 159.119 306.634 162.723 306.433C166.087 306.313 169.515 305.801 172.85 306.501C174.552 306.885 176.153 307.624 177.549 308.67C178.945 309.715 180.105 311.045 180.951 312.57C183.159 316.316 183.889 320.632 184.456 324.877C185.086 329.59 185.665 334.496 188.357 338.553C188.683 339.045 187.902 339.522 187.576 339.031C182.893 331.973 184.471 322.96 181.314 315.35C179.84 311.8 177.288 308.671 173.469 307.596C170.129 306.655 166.595 307.18 163.189 307.331C159.676 307.579 156.156 306.962 152.935 305.536C149.62 303.901 146.607 301.714 144.025 299.069C138.118 293.205 133.169 286.449 129.361 279.049C124.967 270.626 122.047 261.515 120.726 252.108C120.644 251.525 121.561 251.511 121.642 252.089Z" fill="white"/>
<path d="M139.569 293.613C137.215 295.328 134.328 296.151 131.424 295.935C128.519 295.719 125.786 294.477 123.713 292.431C123.295 292.016 123.92 291.347 124.339 291.763C126.266 293.671 128.812 294.827 131.517 295.023C134.223 295.219 136.909 294.442 139.091 292.832C139.566 292.482 140.041 293.265 139.569 293.613Z" fill="white"/>
<path d="M161.025 306.719C162 300.845 160.725 294.82 157.455 289.845C157.131 289.352 157.912 288.875 158.236 289.367C161.63 294.551 162.944 300.823 161.916 306.933C161.817 307.515 160.927 307.298 161.025 306.719Z" fill="white"/>
<path d="M126.179 270.539C127.228 270.065 128.142 269.337 128.841 268.422C129.54 267.508 130 266.433 130.181 265.297C130.272 264.713 131.162 264.932 131.071 265.511C130.866 266.766 130.356 267.952 129.586 268.964C128.817 269.977 127.811 270.786 126.657 271.32C126.552 271.379 126.429 271.397 126.312 271.369C126.195 271.34 126.093 271.269 126.027 271.168C125.964 271.065 125.945 270.94 125.973 270.822C126.002 270.704 126.075 270.602 126.179 270.539Z" fill="white"/>
<path d="M188.076 230.047C188.03 230.413 187.983 230.779 187.943 231.15C187.344 236.071 187.146 241.033 187.35 245.986C187.36 246.369 187.376 246.757 187.397 247.139C188.017 259.068 190.847 270.777 195.742 281.672C197.694 286.006 199.973 290.184 202.559 294.172C206.13 299.68 210.441 305.367 211.94 311.55C212.104 312.194 212.228 312.846 212.311 313.505L190.411 339.359C190.332 339.393 190.258 339.432 190.179 339.466L189.351 340.538C189.204 340.342 189.055 340.135 188.907 339.939C188.821 339.825 188.74 339.706 188.653 339.592C188.597 339.515 188.542 339.437 188.487 339.37C188.468 339.344 188.45 339.318 188.437 339.298C188.382 339.231 188.338 339.163 188.289 339.101C187.453 337.947 186.624 336.786 185.801 335.616C185.795 335.611 185.795 335.611 185.794 335.6C179.548 326.673 173.992 317.145 170.059 307.077C169.941 306.774 169.816 306.466 169.708 306.152C167.96 301.604 166.587 296.92 165.603 292.149C165.072 289.534 164.674 286.894 164.41 284.239C163.742 277.378 164.157 270.455 165.64 263.723C168.598 250.303 175.816 237.979 187.201 230.602C187.492 230.414 187.779 230.231 188.076 230.047Z" fill="#E6E6E6"/>
<path d="M188.355 230.383C180.007 245.423 176.61 262.711 178.647 279.792C179.021 283.477 179.972 287.08 181.468 290.468C183.031 293.722 185.437 296.497 188.436 298.507C191.194 300.437 194.239 302.091 196.481 304.658C197.609 305.989 198.442 307.543 198.927 309.218C199.412 310.894 199.538 312.653 199.295 314.381C198.802 318.701 196.787 322.586 194.684 326.317C192.349 330.46 189.858 334.726 189.564 339.586C189.529 340.174 188.617 340.085 188.653 339.497C189.163 331.042 195.85 324.796 197.911 316.819C198.872 313.097 198.718 309.062 196.316 305.904C194.216 303.143 191.077 301.434 188.267 299.504C185.313 297.587 182.873 294.975 181.161 291.898C179.498 288.596 178.409 285.036 177.941 281.37C176.755 273.131 176.871 264.758 178.286 256.556C179.849 247.186 183.003 238.153 187.613 229.847C187.898 229.333 188.639 229.873 188.355 230.383Z" fill="white"/>
<path d="M177.668 274.331C174.755 274.283 171.955 273.202 169.766 271.281C167.577 269.359 166.143 266.723 165.719 263.841C165.635 263.258 166.537 263.1 166.621 263.684C167.011 266.368 168.348 268.824 170.39 270.609C172.432 272.395 175.044 273.391 177.756 273.419C178.346 273.426 178.254 274.337 177.668 274.331Z" fill="white"/>
<path d="M186.908 297.713C191.223 293.61 193.833 288.032 194.217 282.091C194.255 281.502 195.167 281.591 195.129 282.179C194.717 288.361 191.99 294.161 187.49 298.42C187.061 298.826 186.481 298.116 186.908 297.713Z" fill="white"/>
<path d="M180.869 247.845C181.992 248.099 183.16 248.069 184.269 247.759C185.378 247.449 186.392 246.868 187.221 246.069C187.644 245.659 188.224 246.369 187.803 246.777C186.883 247.655 185.762 248.295 184.538 248.64C183.314 248.985 182.024 249.025 180.78 248.757C180.661 248.742 180.552 248.681 180.476 248.588C180.399 248.496 180.361 248.377 180.369 248.257C180.381 248.136 180.441 248.025 180.534 247.948C180.628 247.871 180.748 247.834 180.869 247.845Z" fill="white"/>
<path d="M461.461 68.74H70.36C69.7803 68.7407 69.2063 68.6271 68.6706 68.4058C68.1349 68.1845 67.6481 67.8597 67.238 67.4501C66.8279 67.0405 66.5025 66.5541 66.2806 66.0187C66.0586 65.4833 65.9444 64.9094 65.9444 64.3298C65.9444 63.7502 66.0586 63.1763 66.2806 62.6409C66.5025 62.1054 66.8279 61.619 67.238 61.2094C67.6481 60.7998 68.1349 60.4751 68.6706 60.2538C69.2063 60.0324 69.7803 59.9189 70.36 59.9196H461.461C462.041 59.9189 462.615 60.0324 463.151 60.2538C463.686 60.4751 464.173 60.7998 464.583 61.2094C464.993 61.619 465.319 62.1054 465.541 62.6409C465.763 63.1763 465.877 63.7502 465.877 64.3298C465.877 64.9094 465.763 65.4833 465.541 66.0187C465.319 66.5541 464.993 67.0405 464.583 67.4501C464.173 67.8597 463.686 68.1845 463.151 68.4058C462.615 68.6271 462.041 68.7407 461.461 68.74Z" fill="#E74242"/>
<path d="M461.461 86.1669H70.36C69.1902 86.1669 68.0683 85.7023 67.2412 84.8752C66.414 84.0481 65.9493 82.9262 65.9493 81.7565C65.9493 80.5868 66.414 79.465 67.2412 78.6379C68.0683 77.8107 69.1902 77.3461 70.36 77.3461H461.461C462.631 77.3461 463.753 77.8107 464.58 78.6379C465.407 79.465 465.872 80.5868 465.872 81.7565C465.872 82.9262 465.407 84.0481 464.58 84.8752C463.753 85.7023 462.631 86.1669 461.461 86.1669Z" fill="#E74242"/>
<path d="M384.849 103.594H70.36C69.1902 103.594 68.0683 103.129 67.2412 102.302C66.414 101.475 65.9493 100.353 65.9493 99.1835C65.9493 98.0138 66.414 96.892 67.2412 96.0649C68.0683 95.2377 69.1902 94.7731 70.36 94.7731H384.849C386.018 94.7731 387.14 95.2377 387.967 96.0649C388.795 96.892 389.259 98.0138 389.259 99.1835C389.259 100.353 388.795 101.475 387.967 102.302C387.14 103.129 386.018 103.594 384.849 103.594Z" fill="#E74242"/>
<path d="M435.903 246.179C440.311 249.171 445.211 252.538 446.631 257.999C446.958 259.165 447.045 260.386 446.888 261.587C446.731 262.788 446.332 263.944 445.716 264.987C444.585 266.873 442.9 268.354 441.256 269.781C439.303 271.477 437.335 273.144 435.82 275.261C435.126 276.231 436.729 277.155 437.417 276.195C440.226 272.269 444.894 270.046 447.366 265.833C450.289 260.851 448.338 254.943 444.715 250.91C442.454 248.393 439.619 246.471 436.837 244.582C435.849 243.912 434.923 245.514 435.903 246.179Z" fill="#E6E7E8"/>
<path d="M451.317 246.179C455.725 249.171 460.625 252.538 462.045 257.999C462.372 259.165 462.459 260.386 462.302 261.587C462.144 262.788 461.746 263.944 461.13 264.987C459.999 266.873 458.314 268.354 456.67 269.781C454.717 271.477 452.749 273.144 451.234 275.261C450.54 276.231 452.143 277.155 452.831 276.195C455.64 272.269 460.308 270.046 462.78 265.833C465.703 260.851 463.752 254.943 460.129 250.91C457.868 248.393 455.033 246.471 452.251 244.582C451.263 243.912 450.337 245.514 451.317 246.179Z" fill="#E6E7E8"/>
<path d="M76.0528 246.179C71.6449 249.171 66.7453 252.538 65.3249 257.999C64.9983 259.165 64.911 260.386 65.0683 261.587C65.2256 262.788 65.6242 263.944 66.2401 264.987C67.3711 266.873 69.0564 268.354 70.7002 269.781C72.6531 271.477 74.6213 273.144 76.1365 275.261C76.8303 276.231 75.2268 277.155 74.5394 276.195C71.7304 272.269 67.0625 270.046 64.5904 265.833C61.6668 260.851 63.6178 254.943 67.241 250.91C69.5021 248.393 72.3373 246.471 75.1193 244.582C76.1067 243.912 77.0332 245.514 76.0528 246.179Z" fill="#E6E7E8"/>
<path d="M60.639 246.179C56.2312 249.171 51.3316 252.538 49.9111 257.999C49.5846 259.165 49.4973 260.386 49.6546 261.587C49.8119 262.788 50.2104 263.944 50.8263 264.987C51.9574 266.873 53.6426 268.354 55.2865 269.781C57.2393 271.477 59.2076 273.144 60.7227 275.261C61.4165 276.231 59.813 277.155 59.1256 276.195C56.3166 272.269 51.6487 270.046 49.1766 265.833C46.253 260.851 48.204 254.943 51.8272 250.91C54.0883 248.393 56.9235 246.471 59.7055 244.582C60.693 243.912 61.6195 245.514 60.639 246.179Z" fill="#E6E7E8"/>
<path d="M230.664 182.151C238.609 182.151 245.049 175.711 245.049 167.767C245.049 159.824 238.609 153.384 230.664 153.384C222.72 153.384 216.28 159.824 216.28 167.767C216.28 175.711 222.72 182.151 230.664 182.151Z" fill="#2F2E41"/>
<path d="M253.679 236.81C273.805 236.81 290.12 220.495 290.12 200.371C290.12 180.246 273.805 163.932 253.679 163.932C233.554 163.932 217.239 180.246 217.239 200.371C217.239 220.495 233.554 236.81 253.679 236.81Z" fill="#2F2E41"/>
<path d="M256.695 236.801C273.049 236.801 286.307 223.543 286.307 207.19C286.307 190.836 273.049 177.579 256.695 177.579C240.34 177.579 227.083 190.836 227.083 207.19C227.083 223.543 240.34 236.801 256.695 236.801Z" fill="#9E616A"/>
<path d="M276.804 177.006C271.615 173.843 265.672 172.131 259.595 172.051C253.519 171.971 247.532 173.525 242.261 176.55C236.991 179.576 232.63 183.961 229.635 189.249C226.639 194.536 225.12 200.532 225.234 206.607C240.323 210.396 256.175 213.295 272.266 207.514L276.066 198.214L278.307 207.52C283.207 209.523 288.12 211.218 293.033 207.501C293.233 201.442 291.84 195.437 288.992 190.086C286.144 184.734 281.942 180.224 276.804 177.006Z" fill="#2F2E41"/>
<path d="M200.293 261.957H200.254C198.304 261.976 196.393 261.404 194.774 260.315C193.155 259.227 191.904 257.674 191.185 255.861C190.412 254.024 190.214 251.997 190.615 250.045C191.017 248.093 192.001 246.309 193.437 244.928L193.603 244.763C199.208 239.118 202.365 231.495 202.393 223.541C202.4 212.309 196.112 201.928 190.218 193.079L189.131 191.452C183.257 182.664 177.183 173.578 175.637 163.111C173.995 151.994 178.204 140.261 186.361 133.218C194.827 125.908 207.591 123.944 217.4 128.44C227.567 133.102 234.107 144.715 232.613 155.453L232.598 155.564L229.025 158.778L228.893 158.768C220.433 158.116 212.006 163.69 209.283 171.722C207.45 177.128 208.109 183.053 209.094 188.65C211.183 200.503 214.694 212.062 219.552 223.074C219.799 223.633 220.049 224.195 220.302 224.759C223.133 231.099 226.062 237.655 224.94 244.446C223.168 255.178 211.776 261.458 201.957 261.918C201.401 261.945 200.847 261.958 200.293 261.957Z" fill="#2F2E41"/>
<path d="M329.113 348.949C321.123 356.213 312.178 362.353 302.528 367.198L300.487 360.626L298.841 367.032L299.482 368.672C298.773 369.005 298.058 369.325 297.342 369.64C296.732 369.911 296.122 370.176 295.511 370.435C273.159 379.825 248.471 382.156 224.756 377.118C224.133 376.989 223.517 376.853 222.9 376.711C220.206 376.095 217.542 375.38 214.916 374.584L218.59 360.922L215.323 344.405L206.814 371.785C197.156 368.047 188.031 363.055 179.674 356.939C182.288 340.04 185.352 319.757 187.245 305.718C187.929 300.589 188.46 296.298 188.756 293.302C188.995 290.494 189.546 287.721 190.396 285.034C190.813 283.735 191.347 282.476 191.992 281.273C192.128 281.008 192.276 280.755 192.424 280.509C192.566 280.268 192.714 280.04 192.868 279.818C196.654 274.177 201.512 274.522 201.512 274.522L216.013 271.692L220.545 270.804L222.388 270.447L224.645 270.003C226.369 269.667 228.003 268.973 229.442 267.966C230.881 266.96 232.093 265.662 232.999 264.158L239.159 253.93C240.464 251.768 242.388 250.048 244.683 248.992C244.96 248.868 245.244 248.751 245.528 248.64C246.78 248.171 248.1 247.907 249.436 247.857L258.154 247.518L261.681 247.376L266.496 247.192C267.633 247.146 268.77 247.258 269.875 247.524H269.881C270.27 247.617 270.64 247.722 271.016 247.851C273.929 248.835 276.379 250.853 277.903 253.523L282.206 261.07C283.174 262.767 284.525 264.215 286.151 265.299C287.776 266.383 289.632 267.074 291.572 267.315L293.224 267.518L295.08 267.753L299.772 268.338L308.342 269.411L308.36 269.738C310 269.867 314.674 270.829 317.806 277.506C318.015 277.944 318.213 278.412 318.404 278.899C319.501 281.86 320.199 284.953 320.482 288.098C320.5 288.234 320.512 288.369 320.525 288.505C321.573 299.189 325.636 326.434 329.113 348.949Z" fill="#2F2E41"/>
<path d="M259.288 376.89L258.703 379.621L256.897 379.233L257.434 376.728C259.129 368.824 259.895 360.748 259.715 352.666L257.445 250.484L257.402 248.647L257.378 247.531L258.315 247.512L259.227 247.494L259.32 251.735L261.565 352.85C261.745 360.925 260.981 368.993 259.288 376.89Z" fill="#E74242"/>
<path d="M186.826 308.776L212.832 312.327L214.651 312.574L215.761 312.728L215.631 313.653L215.502 314.559L211.297 313.986L186.573 310.607L186.826 308.776Z" fill="#E74242"/>
<path d="M264.437 249.22L261.681 247.376L258.315 247.512L258.155 247.518L257.402 248.647L257.446 250.484L259.32 251.735L261.694 253.32C261.963 253.501 262.265 253.627 262.583 253.691C262.901 253.755 263.229 253.756 263.547 253.693C263.865 253.631 264.168 253.506 264.438 253.326C264.708 253.146 264.94 252.915 265.121 252.645C265.301 252.375 265.426 252.073 265.49 251.755C265.553 251.436 265.553 251.109 265.49 250.791C265.426 250.473 265.3 250.17 265.12 249.9C264.939 249.631 264.707 249.4 264.437 249.22ZM264.092 251.957C263.956 252.16 263.763 252.317 263.538 252.41C263.312 252.503 263.064 252.527 262.825 252.479C262.586 252.431 262.366 252.313 262.194 252.141C262.022 251.968 261.905 251.748 261.857 251.509C261.81 251.27 261.835 251.022 261.928 250.796C262.022 250.571 262.18 250.379 262.383 250.243C262.585 250.108 262.824 250.036 263.068 250.036C263.312 250.036 263.55 250.108 263.753 250.243C264.024 250.426 264.212 250.709 264.276 251.03C264.34 251.351 264.273 251.685 264.092 251.957Z" fill="#E74242"/>
</g>
<defs>
<clipPath id="clip0_19_62">
<rect width="499" height="379" fill="white" transform="translate(0 0.713867)"/>
</clipPath>
</defs>
</svg>
