<svg width="500" height="342" viewBox="0 0 500 342" fill="none" xmlns="http://www.w3.org/2000/svg">
<g clip-path="url(#clip0_54_160)">
<path d="M448.554 333.623C437.34 341.726 422.807 342.133 408.76 341.138C406.799 340.999 404.851 340.836 402.921 340.66C402.91 340.657 402.894 340.658 402.883 340.655C402.79 340.647 402.697 340.638 402.608 340.632C402.21 340.595 401.811 340.558 401.417 340.52L401.51 340.698L401.803 341.252C401.697 341.067 401.592 340.885 401.487 340.7C401.456 340.644 401.422 340.589 401.391 340.533C397.752 334.182 394.143 327.597 393.222 320.344C392.271 312.815 394.945 304.291 401.551 300.591C402.417 300.107 403.334 299.721 404.286 299.442C404.681 299.321 405.081 299.223 405.486 299.137C407.964 298.585 410.543 298.705 412.959 299.485C415.375 300.264 417.54 301.675 419.232 303.572C420.924 305.469 422.081 307.784 422.586 310.279C423.09 312.774 422.923 315.358 422.102 317.766C427.702 312.006 426.657 302.662 424.725 294.852C422.79 287.043 420.447 278.353 424.383 271.338C426.572 267.434 430.42 265.012 434.739 264.036C434.872 264.007 435.004 263.978 435.137 263.954C440.283 262.908 445.632 263.848 450.117 266.587C458.375 271.806 462.617 281.703 463.994 291.398C466.212 306.999 461.303 324.41 448.554 333.623Z" fill="#F2F2F2"/>
<path d="M444.933 308.615C444.607 312.056 443.783 315.431 442.487 318.634C441.292 321.468 439.681 324.107 437.708 326.463C433.606 331.279 428.411 335.036 422.56 337.418C418.135 339.236 413.498 340.486 408.76 341.138C406.799 340.999 404.851 340.836 402.921 340.66C402.91 340.657 402.894 340.658 402.882 340.655C402.79 340.647 402.697 340.638 402.608 340.632C402.21 340.595 401.811 340.558 401.417 340.52L401.51 340.698L401.803 341.252C401.697 341.067 401.592 340.885 401.487 340.7C401.456 340.644 401.422 340.589 401.391 340.533C404.943 336.984 407.595 332.632 409.125 327.842C410.655 323.053 411.018 317.965 410.184 313.006C409.311 308.081 407.29 303.434 404.286 299.442C404.681 299.321 405.081 299.223 405.486 299.137C406.628 300.703 407.629 302.366 408.479 304.109C411.527 310.323 412.499 317.356 411.252 324.167C410.093 330.331 407.204 336.035 402.925 340.61C403.3 340.583 403.678 340.553 404.049 340.519C411.061 339.923 418.058 338.411 424.418 335.314C429.854 332.731 434.574 328.847 438.161 324.003C442.013 318.675 443.71 312.266 444.002 305.752C444.226 298.734 443.493 291.718 441.822 284.9C440.202 277.947 437.74 271.219 434.49 264.866C434.417 264.722 434.403 264.556 434.449 264.401C434.496 264.247 434.599 264.116 434.739 264.036C434.856 263.957 434.999 263.927 435.137 263.954C435.204 263.972 435.267 264.005 435.32 264.05C435.373 264.096 435.415 264.153 435.443 264.217C435.844 265.002 436.238 265.787 436.616 266.581C439.768 273.196 442.089 280.177 443.525 287.365C444.918 294.299 445.662 301.553 444.933 308.615Z" fill="white"/>
<path d="M20.8606 109.1C20.5268 109.099 20.1959 109.036 19.8849 108.915C19.382 108.721 18.9498 108.378 18.6456 107.932C18.3415 107.486 18.1798 106.958 18.1821 106.417V78.4273C18.1811 77.4799 17.8054 76.5716 17.1375 75.9016C16.4696 75.2317 15.5641 74.8548 14.6195 74.8537H8.90515C6.54416 74.8511 4.28064 73.9092 2.61117 72.2346C0.941701 70.5601 0.00263082 68.2897 -1.52588e-05 65.9215V9.64609C0.00263239 7.27793 0.941701 5.00753 2.61117 3.33299C4.28064 1.65845 6.54416 0.716521 8.90515 0.713867H210.468C212.829 0.716524 215.092 1.65845 216.761 3.33299C218.431 5.00753 219.37 7.27793 219.373 9.64609V65.9215C219.37 68.2897 218.431 70.5601 216.761 72.2346C215.092 73.9091 212.829 74.8511 210.468 74.8537H54.89C54.3962 74.8543 53.9078 74.9576 53.4558 75.157C53.0038 75.3565 52.5979 75.6478 52.2638 76.0126L22.8226 108.228C22.574 108.502 22.2711 108.721 21.9333 108.871C21.5955 109.021 21.2301 109.099 20.8606 109.1ZM8.90515 1.90409C6.85877 1.90641 4.89687 2.72283 3.44987 4.17424C2.00286 5.62564 1.18892 7.5935 1.1866 9.64609V65.9215C1.18892 67.9741 2.00286 69.942 3.44987 71.3934C4.89687 72.8448 6.85877 73.6612 8.90515 73.6635H14.6195C15.8787 73.6649 17.0859 74.1673 17.9762 75.0604C18.8666 75.9535 19.3674 77.1643 19.3687 78.4273V106.417C19.3688 106.717 19.4591 107.011 19.628 107.258C19.7969 107.506 20.0365 107.697 20.3153 107.805C20.5941 107.914 20.8991 107.936 21.1904 107.868C21.4818 107.8 21.7458 107.645 21.948 107.424L51.3891 75.2082C51.8345 74.722 52.3756 74.3337 52.9781 74.0678C53.5807 73.8019 54.2318 73.6643 54.8901 73.6635H210.468C212.514 73.6612 214.476 72.8448 215.923 71.3934C217.37 69.942 218.184 67.9741 218.186 65.9215V9.64609C218.184 7.5935 217.37 5.62564 215.923 4.17424C214.476 2.72283 212.514 1.90641 210.468 1.90409H8.90515Z" fill="#CCCCCC"/>
<path d="M21.8433 26.0598C26.1469 26.0598 29.6357 22.5605 29.6357 18.2438C29.6357 13.9271 26.1469 10.4277 21.8433 10.4277C17.5397 10.4277 14.051 13.9271 14.051 18.2438C14.051 22.5605 17.5397 26.0598 21.8433 26.0598Z" fill="#CCCCCC"/>
<path d="M201.376 61.4926H17.9963C17.4501 61.4933 16.9091 61.386 16.4043 61.1768C15.8996 60.9676 15.4408 60.6606 15.0544 60.2735C14.6679 59.8863 14.3614 59.4266 14.1522 58.9205C13.943 58.4144 13.8354 57.8719 13.8354 57.3241C13.8354 56.7762 13.943 56.2338 14.1522 55.7277C14.3614 55.2216 14.6679 54.7619 15.0544 54.3747C15.4408 53.9876 15.8996 53.6806 16.4043 53.4714C16.9091 53.2622 17.4501 53.1549 17.9963 53.1555H201.376C201.923 53.1549 202.464 53.2622 202.968 53.4714C203.473 53.6806 203.932 53.9876 204.318 54.3747C204.705 54.7619 205.011 55.2216 205.221 55.7277C205.43 56.2338 205.537 56.7762 205.537 57.3241C205.537 57.8719 205.43 58.4144 205.221 58.9205C205.011 59.4266 204.705 59.8863 204.318 60.2735C203.932 60.6606 203.473 60.9676 202.968 61.1768C202.464 61.386 201.923 61.4933 201.376 61.4926Z" fill="#CCCCCC"/>
<path d="M141.635 43.7761H17.9963C17.4501 43.7767 16.9091 43.6694 16.4043 43.4602C15.8996 43.251 15.4408 42.9441 15.0544 42.5569C14.6679 42.1697 14.3614 41.71 14.1522 41.2039C13.943 40.6978 13.8354 40.1554 13.8354 39.6075C13.8354 39.0597 13.943 38.5172 14.1522 38.0111C14.3614 37.5051 14.6679 37.0453 15.0544 36.6581C15.4408 36.271 15.8996 35.964 16.4043 35.7548C16.9091 35.5457 17.4501 35.4383 17.9963 35.439H141.635C142.181 35.4383 142.722 35.5457 143.227 35.7548C143.732 35.964 144.19 36.271 144.577 36.6581C144.963 37.0453 145.27 37.5051 145.479 38.0111C145.688 38.5172 145.796 39.0597 145.796 39.6075C145.796 40.1554 145.688 40.6978 145.479 41.2039C145.27 41.71 144.963 42.1697 144.577 42.5569C144.19 42.9441 143.732 43.251 143.227 43.4602C142.722 43.6694 142.181 43.7767 141.635 43.7761Z" fill="#CCCCCC"/>
<path d="M20.8607 307.627C20.5268 307.627 20.1959 307.564 19.8849 307.442C19.382 307.248 18.9498 306.906 18.6457 306.46C18.3415 306.014 18.1799 305.485 18.1821 304.945V276.955C18.1811 276.007 17.8054 275.099 17.1375 274.429C16.4696 273.759 15.5641 273.382 14.6195 273.381H8.90515C6.54417 273.379 4.28065 272.437 2.61118 270.762C0.941716 269.088 0.00264282 266.817 -9.53674e-06 264.449V208.174C0.00263811 205.806 0.941708 203.535 2.61117 201.861C4.28064 200.186 6.54417 199.244 8.90515 199.241H210.468C212.829 199.244 215.092 200.186 216.762 201.861C218.431 203.535 219.37 205.806 219.373 208.174V264.449C219.37 266.817 218.431 269.088 216.762 270.762C215.092 272.437 212.829 273.379 210.468 273.381H54.8901C54.3962 273.382 53.9078 273.485 53.4558 273.685C53.0038 273.884 52.5979 274.175 52.2638 274.54L22.8226 306.756C22.574 307.03 22.2711 307.249 21.9333 307.399C21.5955 307.549 21.2301 307.627 20.8607 307.627ZM8.90515 200.432C6.85878 200.434 4.89688 201.25 3.44987 202.702C2.00286 204.153 1.18892 206.121 1.18661 208.174V264.449C1.18892 266.502 2.00287 268.47 3.44987 269.921C4.89688 271.372 6.85878 272.189 8.90515 272.191H14.6195C15.8787 272.193 17.0859 272.695 17.9762 273.588C18.8666 274.481 19.3674 275.692 19.3687 276.955V304.945C19.3688 305.245 19.4591 305.538 19.628 305.786C19.7969 306.033 20.0365 306.224 20.3153 306.333C20.5941 306.442 20.8991 306.463 21.1904 306.395C21.4818 306.327 21.7458 306.172 21.948 305.951L51.3891 273.736C51.8345 273.25 52.3756 272.861 52.9781 272.595C53.5807 272.33 54.2318 272.192 54.8901 272.191H210.468C212.514 272.189 214.476 271.372 215.923 269.921C217.37 268.47 218.184 266.502 218.186 264.449V208.174C218.184 206.121 217.37 204.153 215.923 202.702C214.476 201.25 212.514 200.434 210.468 200.432L8.90515 200.432Z" fill="#CCCCCC"/>
<path d="M318.514 204.455C318.145 204.455 317.779 204.377 317.442 204.227C317.104 204.077 316.801 203.858 316.552 203.584L287.111 171.369C286.777 171.004 286.371 170.712 285.919 170.513C285.467 170.314 284.979 170.21 284.485 170.21H128.908C126.547 170.207 124.283 169.265 122.614 167.591C120.944 165.916 120.005 163.646 120.002 161.277V105.002C120.005 102.634 120.944 100.363 122.614 98.689C124.283 97.0144 126.547 96.0725 128.908 96.0698H330.47C332.831 96.0725 335.094 97.0144 336.764 98.6889C338.433 100.363 339.372 102.634 339.375 105.002V161.277C339.372 163.646 338.433 165.916 336.764 167.591C335.094 169.265 332.831 170.207 330.47 170.21H324.755C323.811 170.211 322.905 170.588 322.237 171.258C321.57 171.928 321.194 172.836 321.193 173.783V201.773C321.195 202.314 321.033 202.842 320.729 203.288C320.425 203.734 319.993 204.077 319.49 204.27C319.179 204.392 318.848 204.455 318.514 204.455ZM128.907 97.26C126.861 97.2624 124.899 98.0788 123.452 99.5302C122.005 100.982 121.191 102.949 121.189 105.002V161.277C121.191 163.33 122.005 165.298 123.452 166.749C124.899 168.201 126.861 169.017 128.907 169.019H284.485C285.143 169.02 285.794 169.158 286.397 169.424C286.999 169.69 287.54 170.078 287.986 170.564L317.427 202.78C317.629 203.001 317.893 203.156 318.185 203.224C318.476 203.292 318.781 203.27 319.06 203.161C319.338 203.052 319.578 202.862 319.747 202.614C319.916 202.366 320.006 202.073 320.006 201.773V173.783C320.008 172.52 320.508 171.309 321.399 170.416C322.289 169.523 323.496 169.021 324.755 169.019H330.47C332.516 169.017 334.478 168.201 335.925 166.749C337.372 165.298 338.186 163.33 338.188 161.277V105.002C338.186 102.949 337.372 100.982 335.925 99.5302C334.478 98.0788 332.516 97.2624 330.47 97.2601L128.907 97.26Z" fill="#3F3D56"/>
<path d="M21.8433 224.587C26.1469 224.587 29.6357 221.088 29.6357 216.771C29.6357 212.455 26.1469 208.955 21.8433 208.955C17.5397 208.955 14.051 212.455 14.051 216.771C14.051 221.088 17.5397 224.587 21.8433 224.587Z" fill="#CCCCCC"/>
<path d="M201.376 260.02H17.9963C17.4501 260.021 16.9091 259.913 16.4043 259.704C15.8996 259.495 15.4408 259.188 15.0544 258.801C14.6679 258.414 14.3614 257.954 14.1522 257.448C13.943 256.942 13.8354 256.399 13.8354 255.851C13.8354 255.304 13.943 254.761 14.1522 254.255C14.3614 253.749 14.6679 253.289 15.0544 252.902C15.4408 252.515 15.8996 252.208 16.4043 251.999C16.9091 251.79 17.4501 251.682 17.9963 251.683H201.376C202.479 251.683 203.536 252.122 204.315 252.904C205.094 253.686 205.532 254.746 205.532 255.851C205.532 256.957 205.094 258.017 204.315 258.799C203.536 259.581 202.479 260.02 201.376 260.02Z" fill="#CCCCCC"/>
<path d="M141.635 242.304H17.9963C17.4501 242.304 16.9091 242.197 16.4043 241.988C15.8996 241.779 15.4408 241.472 15.0544 241.084C14.6679 240.697 14.3614 240.238 14.1522 239.731C13.943 239.225 13.8354 238.683 13.8354 238.135C13.8354 237.587 13.943 237.045 14.1522 236.539C14.3614 236.033 14.6679 235.573 15.0544 235.186C15.4408 234.799 15.8996 234.492 16.4043 234.282C16.9091 234.073 17.4501 233.966 17.9963 233.967H141.635C142.181 233.966 142.722 234.073 143.227 234.282C143.732 234.492 144.19 234.799 144.577 235.186C144.963 235.573 145.27 236.033 145.479 236.539C145.688 237.045 145.796 237.587 145.796 238.135C145.796 238.683 145.688 239.225 145.479 239.731C145.27 240.238 144.963 240.697 144.577 241.084C144.19 241.472 143.732 241.779 143.227 241.988C142.722 242.197 142.181 242.304 141.635 242.304Z" fill="#CCCCCC"/>
<path d="M141.846 120.895C146.149 120.895 149.638 117.395 149.638 113.079C149.638 108.762 146.149 105.262 141.846 105.262C137.542 105.262 134.053 108.762 134.053 113.079C134.053 117.395 137.542 120.895 141.846 120.895Z" fill="#3F3D56"/>
<path d="M321.379 156.327H137.999C136.896 156.327 135.839 155.888 135.06 155.106C134.281 154.325 133.843 153.264 133.843 152.159C133.843 151.053 134.281 149.993 135.06 149.211C135.839 148.429 136.896 147.99 137.999 147.99H321.379C322.481 147.99 323.538 148.429 324.317 149.211C325.097 149.993 325.535 151.053 325.535 152.159C325.535 153.264 325.097 154.325 324.317 155.106C323.538 155.888 322.481 156.327 321.379 156.327Z" fill="#E74242"/>
<path d="M261.637 138.611H137.999C137.452 138.611 136.911 138.504 136.407 138.295C135.902 138.086 135.443 137.779 135.057 137.392C134.67 137.004 134.364 136.545 134.155 136.039C133.945 135.533 133.838 134.99 133.838 134.442C133.838 133.894 133.945 133.352 134.155 132.846C134.364 132.34 134.67 131.88 135.057 131.493C135.443 131.106 135.902 130.799 136.407 130.59C136.911 130.38 137.452 130.273 137.999 130.274H261.637C262.184 130.273 262.724 130.38 263.229 130.59C263.734 130.799 264.193 131.106 264.579 131.493C264.966 131.88 265.272 132.34 265.481 132.846C265.691 133.352 265.798 133.894 265.798 134.442C265.798 134.99 265.691 135.533 265.481 136.039C265.272 136.545 264.966 137.004 264.579 137.392C264.193 137.779 263.734 138.086 263.229 138.295C262.724 138.504 262.184 138.611 261.637 138.611Z" fill="#E74242"/>
<path d="M321.299 215.168C321.477 214.312 321.84 213.505 322.363 212.805C322.885 212.104 323.555 211.527 324.324 211.114C325.093 210.701 325.942 210.462 326.813 210.415C327.684 210.367 328.555 210.511 329.364 210.837L343.283 194.795L346.239 205.441L332.569 219.043C331.932 220.37 330.832 221.417 329.478 221.986C328.123 222.554 326.607 222.604 325.218 222.127C323.829 221.649 322.663 220.677 321.94 219.394C321.218 218.112 320.99 216.608 321.299 215.168Z" fill="#FFB8B8"/>
<path d="M397.69 139.888C405.738 139.888 412.262 133.344 412.262 125.272C412.262 117.199 405.738 110.655 397.69 110.655C389.642 110.655 383.117 117.199 383.117 125.272C383.117 133.344 389.642 139.888 397.69 139.888Z" fill="#FFB8B8"/>
<path d="M380.57 326.463L373.297 326.462L369.836 298.321L380.572 298.321L380.57 326.463Z" fill="#FFB8B8"/>
<path d="M382.426 333.535L358.972 333.534V333.237C358.972 332.034 359.208 330.843 359.667 329.733C360.125 328.622 360.798 327.612 361.645 326.762C362.493 325.912 363.5 325.237 364.607 324.777C365.715 324.317 366.902 324.08 368.101 324.08L382.426 324.081L382.426 333.535Z" fill="#2F2E41"/>
<path d="M402.523 334.199L395.249 334.199L394.242 306.729L402.525 306.058L402.523 334.199Z" fill="#FFB8B8"/>
<path d="M404.378 341.272L380.924 341.271V340.973C380.924 339.771 381.16 338.58 381.619 337.469C382.078 336.358 382.75 335.349 383.598 334.499C384.446 333.648 385.452 332.974 386.56 332.514C387.667 332.054 388.854 331.817 390.053 331.817L404.378 331.817L404.378 341.272Z" fill="#2F2E41"/>
<path d="M400.454 329.064L394.79 328.395C394.147 328.318 393.555 328.009 393.121 327.528C392.688 327.046 392.443 326.423 392.432 325.774L391.371 251.778C391.368 251.569 391.291 251.367 391.155 251.208C391.019 251.05 390.831 250.944 390.625 250.91C390.419 250.876 390.208 250.916 390.028 251.023C389.848 251.129 389.712 251.296 389.642 251.493L381.783 273.75L382.345 315.469C382.355 316.157 382.099 316.823 381.632 317.328C381.165 317.832 380.522 318.137 379.836 318.178L372.441 318.493C371.765 318.531 371.099 318.312 370.577 317.879C370.055 317.446 369.716 316.831 369.627 316.157L365.764 268.964L365.762 268.935L371.622 219.648L415.636 222.842L403.418 326.718C403.34 327.369 403.028 327.969 402.54 328.404C402.051 328.84 401.421 329.081 400.768 329.082C400.663 329.082 400.558 329.076 400.454 329.064Z" fill="#2F2E41"/>
<path d="M371.81 224.017C371.415 223.806 371.079 223.497 370.835 223.121C370.591 222.744 370.446 222.312 370.413 221.864C370.413 221.864 374.371 197.176 375.821 196.713L372.648 170.312C372.268 167.091 372.533 163.828 373.427 160.712C374.322 157.596 375.828 154.691 377.857 152.166C379.811 149.718 382.24 147.691 384.997 146.21C387.753 144.729 390.78 143.823 393.895 143.548C394.339 143.508 394.78 143.477 395.219 143.456C398.974 143.254 402.722 143.965 406.145 145.527C409.567 147.09 412.563 149.459 414.878 152.431C417.278 155.43 418.921 158.965 419.667 162.738C420.413 166.51 420.239 170.407 419.161 174.097L417.381 180.31V223.727C417.379 224.151 417.278 224.568 417.087 224.946C416.895 225.323 416.617 225.651 416.277 225.901C410.734 229.981 404.471 231.423 398.385 231.423C386.868 231.423 375.983 226.258 371.81 224.017Z" fill="#2F2E41"/>
<path d="M337.642 216.072L329.986 210.33C329.686 210.105 329.436 209.819 329.254 209.49C329.071 209.162 328.959 208.799 328.926 208.424C328.892 208.049 328.938 207.672 329.06 207.316C329.182 206.96 329.377 206.634 329.632 206.359L375.236 157.278C376.7 155.716 378.673 154.732 380.799 154.506C382.924 154.279 385.06 154.824 386.818 156.043C387.89 156.792 388.783 157.769 389.435 158.904C390.088 160.039 390.482 161.305 390.591 162.61C390.7 163.916 390.521 165.23 390.067 166.458C389.612 167.686 388.893 168.798 387.96 169.716L341.11 215.839C340.699 216.248 340.165 216.51 339.59 216.587C339.016 216.663 338.432 216.548 337.929 216.26C337.829 216.203 337.733 216.141 337.642 216.072Z" fill="#2F2E41"/>
<path d="M396.23 209.573C396.565 208.765 397.072 208.041 397.716 207.451C398.36 206.861 399.125 206.419 399.957 206.158C400.79 205.897 401.669 205.821 402.534 205.938C403.398 206.054 404.226 206.359 404.961 206.832L421.625 193.683L422.544 204.696L406.579 215.493C405.706 216.678 404.43 217.5 402.993 217.804C401.557 218.109 400.058 217.874 398.783 217.144C397.507 216.414 396.543 215.24 396.072 213.845C395.602 212.45 395.658 210.93 396.23 209.573Z" fill="#FFB8B8"/>
<path d="M411.145 214.706C410.704 214.569 410.307 214.318 409.992 213.979C409.677 213.639 409.457 213.224 409.352 212.772L407.668 205.681C407.545 205.178 407.572 204.649 407.746 204.161C407.92 203.673 408.234 203.247 408.648 202.936L419.973 190.65L403.314 164.884C402.053 163.327 401.342 161.395 401.293 159.389C401.243 157.383 401.858 155.418 403.04 153.8C403.982 152.511 405.248 151.494 406.708 150.853C408.169 150.213 409.772 149.97 411.356 150.151C412.939 150.332 414.447 150.93 415.727 151.883C417.006 152.837 418.011 154.113 418.641 155.582L434.128 185.82C435.668 188.824 436.052 192.291 435.207 195.561C434.363 198.831 432.348 201.675 429.548 203.551L413.72 214.156C413.235 214.591 412.608 214.832 411.958 214.833C411.682 214.832 411.408 214.79 411.145 214.706Z" fill="#2F2E41"/>
<path d="M408.488 138.338C408.144 138.545 407.758 138.67 407.359 138.703C406.96 138.736 406.558 138.676 406.186 138.529C405.813 138.381 405.48 138.149 405.211 137.852C404.942 137.554 404.745 137.198 404.635 136.812L404.626 136.776C404.329 135.559 404.563 134.287 404.64 133.037C404.717 131.787 404.588 130.415 403.734 129.501C402.144 127.798 399.336 128.721 397.047 128.3C395.706 128.007 394.517 127.234 393.704 126.126C392.89 125.018 392.506 123.65 392.625 122.279C392.656 122.019 392.706 121.759 392.762 121.499C392.901 120.84 392.887 120.157 392.719 119.505C392.551 118.853 392.235 118.248 391.795 117.739C391.355 117.23 390.804 116.83 390.184 116.571C389.564 116.311 388.893 116.199 388.223 116.244C385.913 116.389 383.422 117.105 381.501 115.398C380.797 114.725 380.305 113.858 380.089 112.907C379.872 111.955 379.94 110.961 380.283 110.047C381.358 106.881 384.434 105.21 387.483 104.284C391.253 103.169 395.224 102.911 399.106 103.529C402.988 104.146 406.684 105.624 409.925 107.854C411.861 109.207 413.671 110.91 414.505 113.124C415.339 115.338 414.957 118.139 413.112 119.614C414.556 121.132 415.578 123.004 416.074 125.043C416.571 127.082 416.524 129.215 415.939 131.23C415.039 134.194 410.685 137.054 408.488 138.338Z" fill="#2F2E41"/>
<path d="M500 341.119C500 341.276 499.937 341.427 499.826 341.539C499.715 341.65 499.564 341.713 499.407 341.714H273.356C273.198 341.714 273.047 341.651 272.936 341.539C272.825 341.428 272.762 341.276 272.762 341.119C272.762 340.961 272.825 340.809 272.936 340.698C273.047 340.586 273.198 340.523 273.356 340.523H499.407C499.564 340.524 499.715 340.587 499.826 340.698C499.937 340.81 500 340.961 500 341.119Z" fill="#3F3D56"/>
</g>
<defs>
<clipPath id="clip0_54_160">
<rect width="500" height="341" fill="white" transform="translate(0 0.713867)"/>
</clipPath>
</defs>
</svg>
