<svg width="109" height="293" viewBox="0 0 109 293" fill="none" xmlns="http://www.w3.org/2000/svg">
<path fill-rule="evenodd" clip-rule="evenodd" d="M105.272 136.987C103.214 136.987 101.545 135.329 101.545 133.285C101.545 131.24 103.214 129.582 105.272 129.582C107.331 129.582 109 131.24 109 133.285C109 135.329 107.331 136.987 105.272 136.987ZM105.272 111.071C103.214 111.071 101.545 109.413 101.545 107.368C101.545 105.323 103.214 103.666 105.272 103.666C107.331 103.666 109 105.323 109 107.368C109 109.413 107.331 111.071 105.272 111.071ZM105.272 85.1541C103.214 85.1541 101.545 83.4965 101.545 81.4517C101.545 79.407 103.214 77.7494 105.272 77.7494C107.331 77.7494 109 79.407 109 81.4517C109 83.4965 107.331 85.1541 105.272 85.1541ZM105.272 59.2376C103.214 59.2376 101.545 57.58 101.545 55.5353C101.545 53.4905 103.214 51.8329 105.272 51.8329C107.331 51.8329 109 53.4905 109 55.5353C109 57.58 107.331 59.2376 105.272 59.2376ZM105.272 33.3212C103.214 33.3212 101.545 31.6636 101.545 29.6188C101.545 27.5741 103.214 25.9164 105.272 25.9164C107.331 25.9164 109 27.5741 109 29.6188C109 31.6636 107.331 33.3212 105.272 33.3212ZM105.272 7.4047C103.214 7.4047 101.545 5.7471 101.545 3.70235C101.545 1.6576 103.214 0 105.272 0C107.331 0 109 1.6576 109 3.70235C109 5.7471 107.331 7.4047 105.272 7.4047ZM80.7764 136.987C78.7177 136.987 77.0488 135.329 77.0488 133.285C77.0488 131.24 78.7177 129.582 80.7764 129.582C82.8351 129.582 84.5041 131.24 84.5041 133.285C84.5041 135.329 82.8351 136.987 80.7764 136.987ZM80.7764 111.071C78.7177 111.071 77.0488 109.413 77.0488 107.368C77.0488 105.323 78.7177 103.666 80.7764 103.666C82.8351 103.666 84.5041 105.323 84.5041 107.368C84.5041 109.413 82.8351 111.071 80.7764 111.071ZM80.7764 85.1541C78.7177 85.1541 77.0488 83.4965 77.0488 81.4517C77.0488 79.407 78.7177 77.7494 80.7764 77.7494C82.8351 77.7494 84.5041 79.407 84.5041 81.4517C84.5041 83.4965 82.8351 85.1541 80.7764 85.1541ZM80.7764 59.2376C78.7177 59.2376 77.0488 57.58 77.0488 55.5353C77.0488 53.4905 78.7177 51.8329 80.7764 51.8329C82.8351 51.8329 84.5041 53.4905 84.5041 55.5353C84.5041 57.58 82.8351 59.2376 80.7764 59.2376ZM80.7764 33.3212C78.7177 33.3212 77.0488 31.6636 77.0488 29.6188C77.0488 27.5741 78.7177 25.9164 80.7764 25.9164C82.8351 25.9164 84.5041 27.5741 84.5041 29.6188C84.5041 31.6636 82.8351 33.3212 80.7764 33.3212ZM80.7764 7.4047C78.7177 7.4047 77.0488 5.7471 77.0488 3.70235C77.0488 1.6576 78.7177 0 80.7764 0C82.8351 0 84.5041 1.6576 84.5041 3.70235C84.5041 5.7471 82.8351 7.4047 80.7764 7.4047ZM56.2805 136.987C54.2218 136.987 52.5528 135.329 52.5528 133.285C52.5528 131.24 54.2218 129.582 56.2805 129.582C58.3392 129.582 60.0081 131.24 60.0081 133.285C60.0081 135.329 58.3392 136.987 56.2805 136.987ZM56.2805 111.071C54.2218 111.071 52.5528 109.413 52.5528 107.368C52.5528 105.323 54.2218 103.666 56.2805 103.666C58.3392 103.666 60.0081 105.323 60.0081 107.368C60.0081 109.413 58.3392 111.071 56.2805 111.071ZM56.2805 85.1541C54.2218 85.1541 52.5528 83.4965 52.5528 81.4517C52.5528 79.407 54.2218 77.7494 56.2805 77.7494C58.3392 77.7494 60.0081 79.407 60.0081 81.4517C60.0081 83.4965 58.3392 85.1541 56.2805 85.1541ZM56.2805 59.2376C54.2218 59.2376 52.5528 57.58 52.5528 55.5353C52.5528 53.4905 54.2218 51.8329 56.2805 51.8329C58.3392 51.8329 60.0081 53.4905 60.0081 55.5353C60.0081 57.58 58.3392 59.2376 56.2805 59.2376ZM56.2805 33.3212C54.2218 33.3212 52.5528 31.6636 52.5528 29.6188C52.5528 27.5741 54.2218 25.9164 56.2805 25.9164C58.3392 25.9164 60.0081 27.5741 60.0081 29.6188C60.0081 31.6636 58.3392 33.3212 56.2805 33.3212ZM56.2805 7.4047C54.2218 7.4047 52.5528 5.7471 52.5528 3.70235C52.5528 1.6576 54.2218 0 56.2805 0C58.3392 0 60.0081 1.6576 60.0081 3.70235C60.0081 5.7471 58.3392 7.4047 56.2805 7.4047ZM30.7195 136.987C28.6608 136.987 26.9919 135.329 26.9919 133.285C26.9919 131.24 28.6608 129.582 30.7195 129.582C32.7782 129.582 34.4472 131.24 34.4472 133.285C34.4472 135.329 32.7782 136.987 30.7195 136.987ZM30.7195 111.071C28.6608 111.071 26.9919 109.413 26.9919 107.368C26.9919 105.323 28.6608 103.666 30.7195 103.666C32.7782 103.666 34.4472 105.323 34.4472 107.368C34.4472 109.413 32.7782 111.071 30.7195 111.071ZM30.7195 85.1541C28.6608 85.1541 26.9919 83.4965 26.9919 81.4517C26.9919 79.407 28.6608 77.7494 30.7195 77.7494C32.7782 77.7494 34.4472 79.407 34.4472 81.4517C34.4472 83.4965 32.7782 85.1541 30.7195 85.1541ZM30.7195 59.2376C28.6608 59.2376 26.9919 57.58 26.9919 55.5353C26.9919 53.4905 28.6608 51.8329 30.7195 51.8329C32.7782 51.8329 34.4472 53.4905 34.4472 55.5353C34.4472 57.58 32.7782 59.2376 30.7195 59.2376ZM30.7195 33.3212C28.6608 33.3212 26.9919 31.6636 26.9919 29.6188C26.9919 27.5741 28.6608 25.9164 30.7195 25.9164C32.7782 25.9164 34.4472 27.5741 34.4472 29.6188C34.4472 31.6636 32.7782 33.3212 30.7195 33.3212ZM30.7195 7.4047C28.6608 7.4047 26.9919 5.7471 26.9919 3.70235C26.9919 1.6576 28.6608 0 30.7195 0C32.7782 0 34.4472 1.6576 34.4472 3.70235C34.4472 5.7471 32.7782 7.4047 30.7195 7.4047ZM6.22358 136.987C4.16485 136.987 2.4959 135.329 2.4959 133.285C2.4959 131.24 4.16485 129.582 6.22358 129.582C8.2823 129.582 9.95125 131.24 9.95125 133.285C9.95125 135.329 8.2823 136.987 6.22358 136.987ZM6.22358 111.071C4.16485 111.071 2.4959 109.413 2.4959 107.368C2.4959 105.323 4.16485 103.666 6.22358 103.666C8.2823 103.666 9.95125 105.323 9.95125 107.368C9.95125 109.413 8.2823 111.071 6.22358 111.071ZM6.22358 85.1541C4.16485 85.1541 2.4959 83.4965 2.4959 81.4517C2.4959 79.407 4.16485 77.7494 6.22358 77.7494C8.2823 77.7494 9.95125 79.407 9.95125 81.4517C9.95125 83.4965 8.2823 85.1541 6.22358 85.1541ZM6.22358 59.2376C4.16485 59.2376 2.4959 57.58 2.4959 55.5353C2.4959 53.4905 4.16485 51.8329 6.22358 51.8329C8.2823 51.8329 9.95125 53.4905 9.95125 55.5353C9.95125 57.58 8.2823 59.2376 6.22358 59.2376ZM6.22358 33.3212C4.16485 33.3212 2.4959 31.6636 2.4959 29.6188C2.4959 27.5741 4.16485 25.9164 6.22358 25.9164C8.2823 25.9164 9.95125 27.5741 9.95125 29.6188C9.95125 31.6636 8.2823 33.3212 6.22358 33.3212ZM6.22358 7.4047C4.16485 7.4047 2.4959 5.7471 2.4959 3.70235C2.4959 1.6576 4.16485 0 6.22358 0C8.2823 0 9.95125 1.6576 9.95125 3.70235C9.95125 5.7471 8.2823 7.4047 6.22358 7.4047ZM-18.2723 136.987C-20.331 136.987 -22 135.329 -22 133.285C-22 131.24 -20.331 129.582 -18.2723 129.582C-16.2136 129.582 -14.5448 131.24 -14.5448 133.285C-14.5448 135.329 -16.2136 136.987 -18.2723 136.987ZM-18.2723 111.071C-20.331 111.071 -22 109.413 -22 107.368C-22 105.323 -20.331 103.666 -18.2723 103.666C-16.2136 103.666 -14.5448 105.323 -14.5448 107.368C-14.5448 109.413 -16.2136 111.071 -18.2723 111.071ZM-18.2723 85.1541C-20.331 85.1541 -22 83.4965 -22 81.4517C-22 79.407 -20.331 77.7494 -18.2723 77.7494C-16.2136 77.7494 -14.5448 79.407 -14.5448 81.4517C-14.5448 83.4965 -16.2136 85.1541 -18.2723 85.1541ZM-18.2723 59.2376C-20.331 59.2376 -22 57.58 -22 55.5353C-22 53.4905 -20.331 51.8329 -18.2723 51.8329C-16.2136 51.8329 -14.5448 53.4905 -14.5448 55.5353C-14.5448 57.58 -16.2136 59.2376 -18.2723 59.2376ZM-18.2723 33.3212C-20.331 33.3212 -22 31.6636 -22 29.6188C-22 27.5741 -20.331 25.9164 -18.2723 25.9164C-16.2136 25.9164 -14.5448 27.5741 -14.5448 29.6188C-14.5448 31.6636 -16.2136 33.3212 -18.2723 33.3212ZM-18.2723 7.4047C-20.331 7.4047 -22 5.7471 -22 3.70235C-22 1.6576 -20.331 0 -18.2723 0C-16.2136 0 -14.5448 1.6576 -14.5448 3.70235C-14.5448 5.7471 -16.2136 7.4047 -18.2723 7.4047ZM105.272 293C103.214 293 101.545 291.342 101.545 289.298C101.545 287.253 103.214 285.595 105.272 285.595C107.331 285.595 109 287.253 109 289.298C109 291.342 107.331 293 105.272 293ZM105.272 267.084C103.214 267.084 101.545 265.426 101.545 263.381C101.545 261.336 103.214 259.679 105.272 259.679C107.331 259.679 109 261.336 109 263.381C109 265.426 107.331 267.084 105.272 267.084ZM105.272 241.167C103.214 241.167 101.545 239.509 101.545 237.465C101.545 235.42 103.214 233.762 105.272 233.762C107.331 233.762 109 235.42 109 237.465C109 239.509 107.331 241.167 105.272 241.167ZM105.272 215.251C103.214 215.251 101.545 213.593 101.545 211.548C101.545 209.504 103.214 207.846 105.272 207.846C107.331 207.846 109 209.504 109 211.548C109 213.593 107.331 215.251 105.272 215.251ZM105.272 189.334C103.214 189.334 101.545 187.677 101.545 185.632C101.545 183.587 103.214 181.929 105.272 181.929C107.331 181.929 109 183.587 109 185.632C109 187.677 107.331 189.334 105.272 189.334ZM105.272 163.418C103.214 163.418 101.545 161.76 101.545 159.715C101.545 157.671 103.214 156.013 105.272 156.013C107.331 156.013 109 157.671 109 159.715C109 161.76 107.331 163.418 105.272 163.418ZM80.7764 293C78.7177 293 77.0488 291.342 77.0488 289.298C77.0488 287.253 78.7177 285.595 80.7764 285.595C82.8351 285.595 84.5041 287.253 84.5041 289.298C84.5041 291.342 82.8351 293 80.7764 293ZM80.7764 267.084C78.7177 267.084 77.0488 265.426 77.0488 263.381C77.0488 261.336 78.7177 259.679 80.7764 259.679C82.8351 259.679 84.5041 261.336 84.5041 263.381C84.5041 265.426 82.8351 267.084 80.7764 267.084ZM80.7764 241.167C78.7177 241.167 77.0488 239.509 77.0488 237.465C77.0488 235.42 78.7177 233.762 80.7764 233.762C82.8351 233.762 84.5041 235.42 84.5041 237.465C84.5041 239.509 82.8351 241.167 80.7764 241.167ZM80.7764 215.251C78.7177 215.251 77.0488 213.593 77.0488 211.548C77.0488 209.504 78.7177 207.846 80.7764 207.846C82.8351 207.846 84.5041 209.504 84.5041 211.548C84.5041 213.593 82.8351 215.251 80.7764 215.251ZM80.7764 189.334C78.7177 189.334 77.0488 187.677 77.0488 185.632C77.0488 183.587 78.7177 181.929 80.7764 181.929C82.8351 181.929 84.5041 183.587 84.5041 185.632C84.5041 187.677 82.8351 189.334 80.7764 189.334ZM80.7764 163.418C78.7177 163.418 77.0488 161.76 77.0488 159.715C77.0488 157.671 78.7177 156.013 80.7764 156.013C82.8351 156.013 84.5041 157.671 84.5041 159.715C84.5041 161.76 82.8351 163.418 80.7764 163.418ZM56.2805 293C54.2218 293 52.5528 291.342 52.5528 289.298C52.5528 287.253 54.2218 285.595 56.2805 285.595C58.3392 285.595 60.0081 287.253 60.0081 289.298C60.0081 291.342 58.3392 293 56.2805 293ZM56.2805 267.084C54.2218 267.084 52.5528 265.426 52.5528 263.381C52.5528 261.336 54.2218 259.679 56.2805 259.679C58.3392 259.679 60.0081 261.336 60.0081 263.381C60.0081 265.426 58.3392 267.084 56.2805 267.084ZM56.2805 241.167C54.2218 241.167 52.5528 239.509 52.5528 237.465C52.5528 235.42 54.2218 233.762 56.2805 233.762C58.3392 233.762 60.0081 235.42 60.0081 237.465C60.0081 239.509 58.3392 241.167 56.2805 241.167ZM56.2805 215.251C54.2218 215.251 52.5528 213.593 52.5528 211.548C52.5528 209.504 54.2218 207.846 56.2805 207.846C58.3392 207.846 60.0081 209.504 60.0081 211.548C60.0081 213.593 58.3392 215.251 56.2805 215.251ZM56.2805 189.334C54.2218 189.334 52.5528 187.677 52.5528 185.632C52.5528 183.587 54.2218 181.929 56.2805 181.929C58.3392 181.929 60.0081 183.587 60.0081 185.632C60.0081 187.677 58.3392 189.334 56.2805 189.334ZM56.2805 163.418C54.2218 163.418 52.5528 161.76 52.5528 159.715C52.5528 157.671 54.2218 156.013 56.2805 156.013C58.3392 156.013 60.0081 157.671 60.0081 159.715C60.0081 161.76 58.3392 163.418 56.2805 163.418ZM30.7195 293C28.6608 293 26.9919 291.342 26.9919 289.298C26.9919 287.253 28.6608 285.595 30.7195 285.595C32.7782 285.595 34.4472 287.253 34.4472 289.298C34.4472 291.342 32.7782 293 30.7195 293ZM30.7195 267.084C28.6608 267.084 26.9919 265.426 26.9919 263.381C26.9919 261.336 28.6608 259.679 30.7195 259.679C32.7782 259.679 34.4472 261.336 34.4472 263.381C34.4472 265.426 32.7782 267.084 30.7195 267.084ZM30.7195 241.167C28.6608 241.167 26.9919 239.509 26.9919 237.465C26.9919 235.42 28.6608 233.762 30.7195 233.762C32.7782 233.762 34.4472 235.42 34.4472 237.465C34.4472 239.509 32.7782 241.167 30.7195 241.167ZM30.7195 215.251C28.6608 215.251 26.9919 213.593 26.9919 211.548C26.9919 209.504 28.6608 207.846 30.7195 207.846C32.7782 207.846 34.4472 209.504 34.4472 211.548C34.4472 213.593 32.7782 215.251 30.7195 215.251ZM30.7195 189.334C28.6608 189.334 26.9919 187.677 26.9919 185.632C26.9919 183.587 28.6608 181.929 30.7195 181.929C32.7782 181.929 34.4472 183.587 34.4472 185.632C34.4472 187.677 32.7782 189.334 30.7195 189.334ZM30.7195 163.418C28.6608 163.418 26.9919 161.76 26.9919 159.715C26.9919 157.671 28.6608 156.013 30.7195 156.013C32.7782 156.013 34.4472 157.671 34.4472 159.715C34.4472 161.76 32.7782 163.418 30.7195 163.418ZM6.22358 293C4.16485 293 2.4959 291.342 2.4959 289.298C2.4959 287.253 4.16485 285.595 6.22358 285.595C8.2823 285.595 9.95125 287.253 9.95125 289.298C9.95125 291.342 8.2823 293 6.22358 293ZM6.22358 267.084C4.16485 267.084 2.4959 265.426 2.4959 263.381C2.4959 261.336 4.16485 259.679 6.22358 259.679C8.2823 259.679 9.95125 261.336 9.95125 263.381C9.95125 265.426 8.2823 267.084 6.22358 267.084ZM6.22358 241.167C4.16485 241.167 2.4959 239.509 2.4959 237.465C2.4959 235.42 4.16485 233.762 6.22358 233.762C8.2823 233.762 9.95125 235.42 9.95125 237.465C9.95125 239.509 8.2823 241.167 6.22358 241.167ZM6.22358 215.251C4.16485 215.251 2.4959 213.593 2.4959 211.548C2.4959 209.504 4.16485 207.846 6.22358 207.846C8.2823 207.846 9.95125 209.504 9.95125 211.548C9.95125 213.593 8.2823 215.251 6.22358 215.251ZM6.22358 189.334C4.16485 189.334 2.4959 187.677 2.4959 185.632C2.4959 183.587 4.16485 181.929 6.22358 181.929C8.2823 181.929 9.95125 183.587 9.95125 185.632C9.95125 187.677 8.2823 189.334 6.22358 189.334ZM6.22358 163.418C4.16485 163.418 2.4959 161.76 2.4959 159.715C2.4959 157.671 4.16485 156.013 6.22358 156.013C8.2823 156.013 9.95125 157.671 9.95125 159.715C9.95125 161.76 8.2823 163.418 6.22358 163.418ZM-18.2723 293C-20.331 293 -22 291.342 -22 289.298C-22 287.253 -20.331 285.595 -18.2723 285.595C-16.2136 285.595 -14.5448 287.253 -14.5448 289.298C-14.5448 291.342 -16.2136 293 -18.2723 293ZM-18.2723 267.084C-20.331 267.084 -22 265.426 -22 263.381C-22 261.336 -20.331 259.679 -18.2723 259.679C-16.2136 259.679 -14.5448 261.336 -14.5448 263.381C-14.5448 265.426 -16.2136 267.084 -18.2723 267.084ZM-18.2723 241.167C-20.331 241.167 -22 239.509 -22 237.465C-22 235.42 -20.331 233.762 -18.2723 233.762C-16.2136 233.762 -14.5448 235.42 -14.5448 237.465C-14.5448 239.509 -16.2136 241.167 -18.2723 241.167ZM-18.2723 215.251C-20.331 215.251 -22 213.593 -22 211.548C-22 209.504 -20.331 207.846 -18.2723 207.846C-16.2136 207.846 -14.5448 209.504 -14.5448 211.548C-14.5448 213.593 -16.2136 215.251 -18.2723 215.251ZM-18.2723 189.334C-20.331 189.334 -22 187.677 -22 185.632C-22 183.587 -20.331 181.929 -18.2723 181.929C-16.2136 181.929 -14.5448 183.587 -14.5448 185.632C-14.5448 187.677 -16.2136 189.334 -18.2723 189.334ZM-18.2723 163.418C-20.331 163.418 -22 161.76 -22 159.715C-22 157.671 -20.331 156.013 -18.2723 156.013C-16.2136 156.013 -14.5448 157.671 -14.5448 159.715C-14.5448 161.76 -16.2136 163.418 -18.2723 163.418Z" fill="#2F2E41"/>
</svg>
