<svg width="500" height="364" viewBox="0 0 500 364" fill="none" xmlns="http://www.w3.org/2000/svg">
<g clip-path="url(#clip0_7_172)">
<ellipse cx="302.5" cy="204.363" rx="179.5" ry="181.151" fill="#E74242" fill-opacity="0.15"/>
<path d="M47.0072 362.901C50.4796 362.901 53.2946 360.06 53.2946 356.556C53.2946 353.052 50.4796 350.211 47.0072 350.211C43.5348 350.211 40.7198 353.052 40.7198 356.556C40.7198 360.06 43.5348 362.901 47.0072 362.901Z" fill="#3F3D56"/>
<path d="M32.8164 173.738C33.3431 171.941 34.2284 170.412 35.2745 169.327L39.2202 151.884L47.3893 154.022L42.5072 171.485C42.8 172.97 42.7192 174.739 42.1925 176.536C40.9893 180.642 37.915 183.344 35.3259 182.572C32.7367 181.799 31.6132 177.844 32.8164 173.738Z" fill="#FFB6B6"/>
<path d="M111.441 343.33L103.71 343.514L99.4 308.461L110.809 308.188L111.441 343.33Z" fill="#FFB6B6"/>
<path d="M84.9158 359.608C84.9158 360.926 85.8426 361.995 86.986 361.995H102.332C102.332 361.995 103.842 355.869 109.999 353.232L110.424 361.995H118.341L117.382 347.905C117.382 347.905 119.499 340.366 115.101 336.513C110.703 332.66 114.265 333.196 114.265 333.196L112.535 324.475L100.573 325.895L100.485 339.584L94.6794 353.173L86.1644 357.418C85.4065 357.795 84.9158 358.656 84.9158 359.608Z" fill="#2F2E41"/>
<path d="M60.5977 334.167L52.8664 334.351L48.5569 299.298L59.9663 299.026L60.5977 334.167Z" fill="#FFB6B6"/>
<path d="M34.0727 350.446C34.0727 351.764 34.9995 352.832 36.1429 352.832H51.4888C51.4888 352.832 52.999 346.706 59.1562 344.069L59.5812 352.832H67.4976L66.5384 338.742C66.5384 338.742 68.6561 331.204 64.2581 327.35C59.8601 323.497 63.4223 324.033 63.4223 324.033L61.6922 315.313L49.7296 316.732L49.6417 330.422L43.8363 344.01L35.3213 348.255C34.5634 348.633 34.0727 349.494 34.0727 350.446Z" fill="#2F2E41"/>
<path d="M109.047 63.9032L81.2039 68.79C79.2858 63.8354 66.4079 30.2211 65.6125 25.3702C63.5447 12.7585 72.862 1.13141 85.4934 0.180088C97.6084 -0.732338 104.989 1.55735 106.02 13.2032C106.382 17.2852 109.853 28.2202 110.913 32.1761C116.766 54.001 110.446 59.2525 109.047 63.9032Z" fill="#2F2E41"/>
<path d="M63.651 135.372L61.8351 163.471L44.5848 249.905L45.7954 310.379L61.5325 307.935L66.3747 252.348L93.7002 189.737L97.2437 319.541L114.191 320.152L126.102 167.714C127.012 156.067 123.987 144.452 117.52 134.761L63.651 135.372Z" fill="#2F2E41"/>
<path d="M98.7569 44.9671H76.5429L71.5195 52.908L53.9666 60.2382L63.651 129.874L61.2299 159.806C74.9142 164.492 106.672 171.745 129.641 152.602L109.047 115.214L113.889 62.6815L104.507 54.0672L98.7569 44.9671Z" fill="#2F2E41"/>
<path d="M67.5853 58.1002C67.5853 58.1002 57.2956 53.8243 52.4534 61.7653C49.8183 66.0866 44.8531 95.7332 40.8741 121.862C37.5413 143.748 34.9004 163.165 34.9004 163.165L45.4927 164.692L57.3258 121.944L66.3747 89.2532L67.5853 58.1002Z" fill="#2F2E41"/>
<path d="M86.4672 41.0183C95.7365 41.0183 103.251 33.435 103.251 24.0804C103.251 14.7259 95.7365 7.14252 86.4672 7.14252C77.1979 7.14252 69.6837 14.7259 69.6837 24.0804C69.6837 33.435 77.1979 41.0183 86.4672 41.0183Z" fill="#FFB6B6"/>
<path d="M357.124 341.705L365.469 346.325L387.102 316.041L374.786 309.221L357.124 341.705Z" fill="#FFB6B6"/>
<path d="M385.818 357.347C385.838 357.933 385.2 359.434 384.921 359.947C384.062 361.526 382.098 362.103 380.534 361.237L354.692 346.925C353.625 346.334 353.234 344.982 353.82 343.905L354.41 342.819C354.41 342.819 354.906 338.848 359.726 336.283C359.726 336.283 361.284 341.245 368.855 339.019L371.729 337.182L377.976 350.661L383.368 354.583C384.548 355.441 385.769 355.88 385.818 357.347Z" fill="#2F2E41"/>
<path d="M374.247 356.013L383.766 356.012L388.294 318.96L374.245 318.961L374.247 356.013Z" fill="#FFB6B6"/>
<path d="M406.859 355.795C407.156 356.299 407.312 357.925 407.312 358.511C407.312 360.311 405.866 361.771 404.081 361.771H374.603C373.386 361.771 372.399 360.775 372.399 359.547V358.308C372.399 358.308 370.941 354.586 373.943 349.998C373.943 349.998 377.675 353.59 383.251 347.963L384.895 344.957L396.797 353.742L403.394 354.561C404.837 354.741 406.117 354.534 406.859 355.795Z" fill="#2F2E41"/>
<path d="M381.219 153.973L377.272 181.767L372.139 333.561H390.174L409.666 193.678V267.157L368.508 312.182L381.557 321.344L436.539 269.274L446.588 169.244L438.72 154.584L381.219 153.973Z" fill="#2F2E41"/>
<path d="M423.285 43.6964L406.286 42.9204L400.89 51.6374L378.442 62.8626L381.521 129.825L375.468 160.367C375.468 160.367 432.179 181.135 446.705 168.919L442.654 125.549L445.807 63.769L431.154 56.5241L423.285 43.6964Z" fill="#2F2E41"/>
<path d="M416.308 39.1075C426.017 39.1075 433.887 31.1646 433.887 21.3666C433.887 11.5685 426.017 3.62564 416.308 3.62564C406.599 3.62564 398.729 11.5685 398.729 21.3666C398.729 31.1646 406.599 39.1075 416.308 39.1075Z" fill="#FFB6B6"/>
<path d="M402.412 35.8605C403.688 35.9864 403.761 38.4797 404.974 38.8546C406.084 39.1974 408.02 37.7289 408.211 36.1327C408.363 34.8607 407.295 34.4328 405.783 31.7776C404.894 30.2167 406.338 30.6358 406.286 28.417C406.271 27.7562 403.862 23.739 405.109 21.9787C405.522 21.3961 406.107 20.5704 407.132 20.2095C408.674 19.6663 409.502 20.7776 411.447 20.89C413.307 20.9974 410.245 22.774 412.4 21.381C414.603 19.957 415.439 16.2574 415.426 14.6617C415.413 13.02 415.051 16.1155 415.426 14.6617C415.615 13.9289 422.992 20.4799 423.352 20.2588C425.675 18.8348 426.843 16.1649 429.348 17.7159C432.065 19.3988 433.296 18.7279 434.19 18.3268C434.924 17.9973 434.319 11.7037 434.103 10.6828C433.508 7.87458 430.43 6.56149 430.192 6.46382C428.6 5.81169 428.017 6.28797 427.09 5.51115C425.774 4.4079 426.522 3.08944 425.472 1.97266C424.315 0.742628 422.957 2.99518 417.963 3.03608C414.753 3.06235 414.624 1.19167 412.931 1.29218C411.526 1.37556 406.862 1.65233 402.682 4.96677C398.156 8.55468 396.958 13.512 396.613 15.0378C395.806 18.6035 395.476 24.9599 398.501 28.3752C399.226 29.1941 400.336 30.0604 400.794 31.7776C401.31 33.7142 400.713 35.6682 401.468 35.9966C401.784 36.1342 401.943 35.8142 402.412 35.8605Z" fill="#2F2E41"/>
<path d="M7.15256e-06 362.383C7.15256e-06 362.982 0.476079 363.462 1.06892 363.462H498.931C499.524 363.462 500 362.982 500 362.383C500 361.785 499.524 361.305 498.931 361.305H1.06892C0.476079 361.305 7.15256e-06 361.785 7.15256e-06 362.383Z" fill="#CCCCCC"/>
<path d="M378.424 169.825H121.576C112.154 169.825 104.492 177.557 104.492 187.066V344.754C104.492 354.263 112.154 361.995 121.576 361.995H378.424C387.846 361.995 395.508 354.263 395.508 344.754V187.066C395.508 177.557 387.846 169.825 378.424 169.825Z" fill="white"/>
<path d="M378.424 169.825H121.576C112.154 169.825 104.492 177.557 104.492 187.066V344.754C104.492 354.263 112.154 361.995 121.576 361.995H378.424C387.846 361.995 395.508 354.263 395.508 344.754V187.066C395.508 177.557 387.846 169.825 378.424 169.825ZM393.712 292.473C393.712 329.867 363.674 360.182 326.62 360.182H121.576C113.133 360.182 106.288 353.275 106.288 344.754V187.066C106.288 178.545 113.133 171.638 121.576 171.638H378.424C386.867 171.638 393.712 178.545 393.712 187.066V292.473Z" fill="#3F3D56"/>
<path d="M127.899 176.053C127.538 174.215 127.619 172.446 128.046 170.995L123.513 153.698L131.731 151.762L135.445 169.516C136.387 170.694 137.13 172.298 137.49 174.137C138.314 178.337 136.835 182.171 134.187 182.701C131.538 183.23 128.723 180.254 127.899 176.053Z" fill="#FFB6B6"/>
<path d="M102.691 58.7111C102.691 58.7111 112.981 54.4352 117.823 62.3761C122.665 70.3171 135.376 163.776 135.376 163.776L124.784 165.303L103.902 89.8641L102.691 58.7111Z" fill="#2F2E41"/>
<path d="M356.354 178.809C356.602 176.937 357.246 175.276 358.117 174.03L356.139 133.508L371.171 131.482L365.606 175.04C366.121 176.472 366.31 178.246 366.062 180.118C365.494 184.395 362.861 187.57 360.181 187.208C357.5 186.847 355.786 183.086 356.354 178.809Z" fill="#FFB6B6"/>
<path d="M394.928 64.4756C394.928 64.4756 380.683 59.0459 375.945 63.9675C371.207 68.889 355.48 123.751 355.48 123.751L356.953 164.61L368.175 162.656L394.928 64.4756Z" fill="#2F2E41"/>
<path d="M220.386 324.546H195.183C193.917 324.546 192.884 325.589 192.884 326.867C192.884 328.154 193.917 329.196 195.183 329.196H220.386C221.653 329.196 222.686 328.154 222.686 326.867C222.686 325.589 221.653 324.546 220.386 324.546Z" fill="#E6E6E6"/>
<path d="M262.602 324.546H237.398C236.132 324.546 235.099 325.589 235.099 326.867C235.099 328.154 236.132 329.196 237.398 329.196H262.602C263.868 329.196 264.901 328.154 264.901 326.867C264.901 325.589 263.868 324.546 262.602 324.546Z" fill="#E6E6E6"/>
<path d="M304.817 324.546H279.614C278.347 324.546 277.314 325.589 277.314 326.867C277.314 328.154 278.347 329.196 279.614 329.196H304.817C306.083 329.196 307.116 328.154 307.116 326.867C307.116 325.589 306.083 324.546 304.817 324.546Z" fill="#E6E6E6"/>
<path d="M406.736 85.5241C406.736 80.7758 410.563 76.9127 415.268 76.9127C419.973 76.9127 423.801 80.7758 423.801 85.5241C423.801 90.2724 419.973 94.1354 415.268 94.1354C410.563 94.1354 406.736 90.2724 406.736 85.5241ZM407.634 85.5241C407.634 89.7722 411.059 93.229 415.268 93.229C419.478 93.229 422.903 89.7722 422.903 85.5241C422.903 81.2759 419.478 77.8191 415.268 77.8191C411.059 77.8191 407.634 81.2759 407.634 85.5241Z" fill="#3F3D56"/>
<path d="M415.268 90.0564C417.749 90.0564 419.759 88.0272 419.759 85.5241C419.759 83.0209 417.749 80.9918 415.268 80.9918C412.788 80.9918 410.777 83.0209 410.777 85.5241C410.777 88.0272 412.788 90.0564 415.268 90.0564Z" fill="#3F3D56"/>
<path d="M425.427 92.5293C426.602 93.9805 427.355 95.5794 427.655 97.0631L458.114 123.071L449.304 135.486L421.815 101.88C420.434 101.288 419.031 100.225 417.856 98.774C415.171 95.4587 414.689 91.3732 416.78 89.6487C418.87 87.9243 422.741 89.214 425.427 92.5293Z" fill="#FFB6B6"/>
<path d="M437.509 64.1597C437.509 64.1597 445.983 59.8837 450.825 67.2139C455.667 74.544 460.595 112.439 460.595 112.439C460.595 112.439 466.562 138.683 455.062 138.072C443.562 137.461 422.454 104.682 422.454 104.682L430.538 97.4301L431.456 88.5934L437.509 64.1597Z" fill="#2F2E41"/>
<path d="M84.4099 2.87587C77.5831 4.0882 70.9675 7.81842 67.4257 13.8319C63.8839 19.8453 57.3945 28.2239 62.0993 33.3613C63.7254 35.1369 65.7971 36.4811 67.2599 38.396C69.7491 41.6545 70.1086 46.2328 68.8674 50.1519C67.6261 54.071 64.9641 57.3941 61.9186 60.1295C68.4375 59.4508 74.3868 54.7769 76.6381 48.5656C77.6799 45.6914 77.8919 42.2436 76.1093 39.7676C75.1718 38.4655 73.7909 37.5753 72.6001 36.5045C69.5288 33.7429 71.5013 29.5714 71.5195 25.4201C71.5378 21.2687 72.0557 18.3806 75.1512 15.6466C77.283 17.3661 84.352 16.9509 87.0458 16.5098C89.7396 16.0687 97.2732 26.5099 98.7569 24.1984C101.661 27.9663 99.6742 20.2019 99.1289 24.9439C98.7388 28.3364 96.5315 31.2627 95.8661 34.6113C95.287 37.5252 95.9198 40.5575 96.9371 43.3465C99.2317 49.6379 103.534 55.1656 109.047 58.906C105.864 54.3628 102.545 49.3978 102.65 43.8346C102.728 39.7083 109.642 31.1918 110.862 27.2526C113.197 19.7151 108.569 11.3623 103.599 5.26225C99.2348 -0.0947969 90.7982 1.56057 84.1083 3.14656" fill="#2F2E41"/>
<path opacity="0.7" d="M303.527 251.771C307.61 255.386 302.665 262.53 301.071 267.475C298.587 275.18 290.748 279.763 282.843 278.353C276.719 277.261 270.557 276.489 264.357 276.046C257.746 275.574 251.1 275.475 244.399 275.746C237.438 276.027 230.432 276.725 223.363 277.84L223.245 277.859C215.133 279.133 207.358 274.216 205.014 266.275C203.657 261.68 199.44 255.377 202.929 251.771C213.7 240.641 207.976 236.921 206.709 232.434C204.723 225.4 216.277 221.55 223.486 222.292C223.786 222.323 224.087 222.353 224.387 222.383C235.031 223.444 245.674 223.861 256.318 223.634C258.995 223.589 261.68 223.489 264.357 223.353C270.428 223.051 276.496 222.541 282.565 221.819C289.617 220.981 301.992 224.749 299.306 231.383C296.539 238.218 296.234 245.312 303.527 251.771Z" fill="#2F2E41"/>
<path opacity="0.7" d="M264.357 223.353V276.046C257.746 275.574 251.1 275.475 244.399 275.746C237.438 276.027 230.432 276.725 223.363 277.84C224.306 269.021 223.705 260.047 230.45 256.756C238.794 252.677 231.384 236.207 224.387 222.383C235.031 223.444 245.674 223.861 256.318 223.634C258.995 223.589 261.68 223.489 264.357 223.353Z" fill="#3F3D56"/>
<path opacity="0.7" d="M303.527 251.771C307.533 255.473 302.665 262.53 301.071 267.475C298.587 275.18 290.748 279.763 282.843 278.353C276.719 277.261 270.557 276.489 264.357 276.046C257.746 275.574 251.1 275.475 244.399 275.746C238.13 267.579 235.731 260.083 241.498 255.36C248.028 250.021 250.3 236.896 256.318 223.634C258.995 223.589 261.68 223.489 264.357 223.353C270.428 223.051 276.496 222.541 282.565 221.819C289.617 220.981 302.294 224.882 299.306 231.383C296.344 237.826 295.976 244.791 303.527 251.771Z" fill="#FF6884"/>
<path d="M242.162 266.033H216.959C215.693 266.033 214.66 267.075 214.66 268.353C214.66 269.641 215.693 270.683 216.959 270.683H242.162C243.429 270.683 244.462 269.641 244.462 268.353C244.462 267.075 243.429 266.033 242.162 266.033Z" fill="#3F3D56"/>
<path d="M287.072 249.717H261.869C260.602 249.717 259.569 250.759 259.569 252.037C259.569 253.324 260.602 254.367 261.869 254.367H287.072C288.339 254.367 289.372 253.324 289.372 252.037C289.372 250.759 288.339 249.717 287.072 249.717Z" fill="#3F3D56"/>
<path d="M252.043 234.307H226.839C225.573 234.307 224.54 235.349 224.54 236.627C224.54 237.915 225.573 238.957 226.839 238.957H252.043C253.309 238.957 254.342 237.915 254.342 236.627C254.342 235.349 253.309 234.307 252.043 234.307Z" fill="#3F3D56"/>
<path d="M217.117 262.249H123.697V263.156H217.117V262.249Z" fill="#3F3D56"/>
<path d="M142.567 271.181C137.862 271.181 134.034 267.318 134.034 262.57C134.034 257.821 137.862 253.958 142.567 253.958C147.272 253.958 151.1 257.821 151.1 262.57C151.1 267.318 147.272 271.181 142.567 271.181ZM142.567 254.865C138.357 254.865 134.932 258.321 134.932 262.57C134.932 266.818 138.357 270.274 142.567 270.274C146.777 270.274 150.201 266.818 150.201 262.57C150.201 258.321 146.777 254.865 142.567 254.865Z" fill="#3F3D56"/>
<path d="M142.567 267.102C145.047 267.102 147.058 265.073 147.058 262.57C147.058 260.066 145.047 258.037 142.567 258.037C140.086 258.037 138.076 260.066 138.076 262.57C138.076 265.073 140.086 267.102 142.567 267.102Z" fill="#E74242"/>
<path d="M369.118 257.717H275.697V258.623H369.118V257.717Z" fill="#3F3D56"/>
<path d="M341.715 258.037C341.715 253.289 345.543 249.426 350.248 249.426C354.953 249.426 358.781 253.289 358.781 258.037C358.781 262.786 354.953 266.649 350.248 266.649C345.543 266.649 341.715 262.786 341.715 258.037ZM342.613 258.037C342.613 262.285 346.038 265.742 350.248 265.742C354.457 265.742 357.882 262.285 357.882 258.037C357.882 253.789 354.457 250.332 350.248 250.332C346.038 250.332 342.613 253.789 342.613 258.037Z" fill="#3F3D56"/>
<path d="M350.248 262.57C352.728 262.57 354.739 260.54 354.739 258.037C354.739 255.534 352.728 253.505 350.248 253.505C347.767 253.505 345.757 255.534 345.757 258.037C345.757 260.54 347.767 262.57 350.248 262.57Z" fill="#E74242"/>
<path d="M243.165 229.617H149.744V230.523H243.165V229.617Z" fill="#3F3D56"/>
<path d="M168.615 238.548C163.91 238.548 160.082 234.685 160.082 229.937C160.082 225.189 163.91 221.326 168.615 221.326C173.32 221.326 177.147 225.189 177.147 229.937C177.147 234.685 173.32 238.548 168.615 238.548ZM168.615 222.232C164.405 222.232 160.98 225.689 160.98 229.937C160.98 234.185 164.405 237.642 168.615 237.642C172.824 237.642 176.249 234.185 176.249 229.937C176.249 225.689 172.824 222.232 168.615 222.232Z" fill="#3F3D56"/>
<path d="M168.615 234.469C171.095 234.469 173.106 232.44 173.106 229.937C173.106 227.434 171.095 225.405 168.615 225.405C166.134 225.405 164.124 227.434 164.124 229.937C164.124 232.44 166.134 234.469 168.615 234.469Z" fill="#E74242"/>
</g>
<defs>
<clipPath id="clip0_7_172">
<rect width="500" height="363.462" fill="white"/>
</clipPath>
</defs>
</svg>
