<svg xmlns="http://www.w3.org/2000/svg" version="1.1" xmlns:xlink="http://www.w3.org/1999/xlink" xmlns:svgjs="http://svgjs.dev/svgjs" width="1000" height="623" viewBox="0 0 1000 623"><g transform="matrix(1,0,0,1,-0.6060288302281265,0.2522267206477409)"><svg viewBox="0 0 396 247" data-background-color="#fafafa" preserveAspectRatio="xMidYMid meet" height="623" width="1000" xmlns="http://www.w3.org/2000/svg" xmlns:xlink="http://www.w3.org/1999/xlink"><g id="tight-bounds" transform="matrix(1,0,0,1,0.2399877538211399,-0.09999999999999432)"><svg viewBox="0 0 395.52 247.2" height="247.2" width="395.52"><g><svg></svg></g><g><svg viewBox="0 0 395.52 247.2" height="247.2" width="395.52"><g><g><path xmlns="http://www.w3.org/2000/svg" d="M95.536 247.174c-4.96 0-8.573-0.62-10.837-1.86-2.211-1.24-3.316-3.181-3.315-5.823v-37.936l30.57 0v37.936c0 5.122-4.664 7.683-13.991 7.683zM81.384 7.871c0-5.23 4.718-7.845 14.152-7.845h12.455c7.764 0 12.697 2.157 14.8 6.47l22.571 39.149-63.978 0zM273.862 6.496c2.264-4.313 7.144-6.47 14.638-6.47h11.645c9.327 0 13.991 2.615 13.991 7.845l0 37.774-62.525 0zM314.136 239.491c0 5.122-4.664 7.683-13.991 7.683h-2.426c-4.96 0-8.573-0.62-10.837-1.86-2.211-1.24-3.316-3.181-3.316-5.823l0-37.936 30.57 0z" fill="#130912" fill-rule="nonzero" stroke="none" stroke-width="1" stroke-linecap="butt" stroke-linejoin="miter" stroke-miterlimit="10" stroke-dasharray="" stroke-dashoffset="0" font-family="none" font-weight="none" font-size="none" text-anchor="none" style="mix-blend-mode: normal" data-fill-palette-color="tertiary"></path></g></g><g transform="matrix(1,0,0,1,0,63.25587978671837)"><svg viewBox="0 0 395.52 120.68824042656325" height="120.68824042656325" width="395.52"><g><svg viewBox="0 0 395.52 120.68824042656325" height="120.68824042656325" width="395.52"><g><svg viewBox="0 0 395.52 120.68824042656325" height="120.68824042656325" width="395.52"><g><svg viewBox="0 0 395.52 120.68824042656325" height="120.68824042656325" width="395.52"><g><svg viewBox="0 0 395.52 120.68824042656325" height="120.68824042656325" width="395.52"><g><svg viewBox="0 0 395.52 120.68824042656325" height="120.68824042656325" width="395.52"><g transform="matrix(1,0,0,1,0,0)"><svg width="395.52" viewBox="3.9100000858306885 -30.489999771118164 100.7199935913086 30.729999542236328" height="120.68824042656325" data-palette-color="#130912"><path d="M5.66 0.07Q4.74 0.07 4.32-0.16 3.91-0.39 3.91-0.88L3.91-0.88 3.91-29.52Q3.91-30.49 5.66-30.49L5.66-30.49 7.2-30.49Q8.64-30.49 9.03-29.69L9.03-29.69 17.24-15.45 18.36-12.72 19.48-15.21 27.71-29.69Q28.13-30.49 29.52-30.49L29.52-30.49 30.96-30.49Q32.69-30.49 32.69-29.52L32.69-29.52 32.69-0.88Q32.69 0.07 30.96 0.07L30.96 0.07 30.66 0.07Q29.74 0.07 29.32-0.16 28.91-0.39 28.91-0.88L28.91-0.88 28.91-24.24 28.83-24.05 20.19-9.03Q20.02-8.74 19.8-8.61 19.58-8.47 19.24-8.47L19.24-8.47 17.5-8.47Q16.85-8.47 16.53-9.03L16.53-9.03 7.69-24.49 7.69-0.88Q7.69 0.07 5.96 0.07L5.96 0.07 5.66 0.07ZM49.02 0.24Q44.11 0.24 41.54-2.7 38.96-5.64 38.96-11.25L38.96-11.25Q38.96-16.87 41.57-19.91 44.19-22.95 49.02-22.95L49.02-22.95Q53.81-22.95 56.35-19.93 58.88-16.92 58.88-11.25L58.88-11.25Q58.88-5.62 56.38-2.69 53.88 0.24 49.02 0.24L49.02 0.24ZM48.9-2.88Q52.07-2.88 53.59-4.94 55.1-7.01 55.1-11.33L55.1-11.33Q55.1-15.67 53.59-17.75 52.07-19.82 48.9-19.82L48.9-19.82Q45.75-19.82 44.26-17.76 42.77-15.7 42.77-11.33L42.77-11.33Q42.77-6.98 44.25-4.93 45.73-2.88 48.9-2.88L48.9-2.88ZM74.21 0.24Q68.82 0.24 66.17-2.53 63.52-5.3 63.52-11.45L63.52-11.45Q63.52-17.68 66.47-20.31 69.43-22.95 73.82-22.95L73.82-22.95Q75.46-22.95 76.97-22.67 78.49-22.39 79.41-21.92 80.34-21.46 80.34-20.95L80.34-20.95Q80.34-20.61 80.11-20.04 79.88-19.48 79.55-19.06 79.22-18.63 78.95-18.63L78.95-18.63Q78.88-18.63 78.73-18.69 78.58-18.75 78.46-18.8L78.46-18.8Q76.26-19.82 73.73-19.82L73.73-19.82Q70.72-19.82 69.09-17.86 67.45-15.89 67.45-11.55L67.45-11.55Q67.45-8.47 68.11-6.58 68.77-4.69 70.25-3.78 71.72-2.88 74.19-2.88L74.19-2.88Q76.9-2.88 79.07-4L79.07-4Q79.29-4.05 79.4-4.11 79.51-4.17 79.56-4.17L79.56-4.17Q79.83-4.17 80.17-3.76 80.51-3.34 80.77-2.81 81.03-2.27 81.03-1.95L81.03-1.95Q81.03-1.44 80.1-0.93 79.17-0.42 77.6-0.09 76.02 0.24 74.21 0.24L74.21 0.24ZM94.77 0.24Q89.86 0.24 87.28-2.7 84.71-5.64 84.71-11.25L84.71-11.25Q84.71-16.87 87.32-19.91 89.93-22.95 94.77-22.95L94.77-22.95Q99.55-22.95 102.09-19.93 104.63-16.92 104.63-11.25L104.63-11.25Q104.63-5.62 102.13-2.69 99.63 0.24 94.77 0.24L94.77 0.24ZM94.65-2.88Q97.82-2.88 99.33-4.94 100.85-7.01 100.85-11.33L100.85-11.33Q100.85-15.67 99.33-17.75 97.82-19.82 94.65-19.82L94.65-19.82Q91.5-19.82 90.01-17.76 88.52-15.7 88.52-11.33L88.52-11.33Q88.52-6.98 89.99-4.93 91.47-2.88 94.65-2.88L94.65-2.88Z" opacity="1" transform="matrix(1,0,0,1,0,0)" fill="#130912" class="undefined-text-0" data-fill-palette-color="primary" id="text-0"></path></svg></g></svg></g></svg></g></svg></g></svg></g></svg></g></svg></g></svg></g><defs></defs></svg><rect width="395.52" height="247.2" fill="none" stroke="none" visibility="hidden"></rect></g></svg></g></svg>