<svg width="500" height="348" viewBox="0 0 500 348" fill="none" xmlns="http://www.w3.org/2000/svg">
<g clip-path="url(#clip0_7_173)">
<path d="M188.428 68.4616C184.62 54.572 215.334 42.6614 223.399 53.8467C224.521 52.2565 228.665 51.2906 230.567 51.7784C232.469 52.2662 234.068 53.4857 235.628 54.6662C237.774 56.3151 239.997 58.0224 241.314 60.3931C242.64 62.7541 242.845 65.9737 241.06 68.0225C239.646 69.6518 235.472 70.7055 233.346 71.1348C231.864 71.4372 230.616 71.6811 229.543 71.8567C228.587 70.4616 228.1 68.7347 228.275 67.0469C226.832 68.003 225.857 69.642 225.701 71.3787C225.671 71.7397 237.686 115.965 237.686 115.965C236.447 116.696 234.916 117.379 233.151 118.004C230.157 113.487 227.7 108.16 226.081 102.589C225.71 106.033 225.769 109.769 226.217 113.565C226.451 115.584 226.803 117.613 227.251 119.643C212.974 122.726 191.5 121.711 182.158 108.599C182.156 108.544 182.155 108.49 182.153 108.436C182.086 105.982 178.74 105.373 177.845 107.658C177.618 108.236 177.41 108.737 177.223 109.135C174.503 99.3986 178.023 88.1301 188.428 68.4616Z" fill="#2F2E41"/>
<path d="M382.493 178.605C379.115 182.613 373.129 183.123 369.122 179.744C368.734 179.416 368.373 179.058 368.042 178.673L322.955 192.959L315.939 181.455L369.613 164.878C373.825 161.77 379.757 162.665 382.864 166.878C385.463 170.403 385.31 175.251 382.493 178.605Z" fill="#FFB6B6"/>
<path d="M222.82 142.905C222.82 142.905 242.787 120.437 251.484 129.981C260.181 139.525 287.316 181.348 287.316 181.348L350.658 167.978L356.783 184.702L284.862 208.018C279.455 209.771 273.53 207.953 270.034 203.47L222.82 142.905Z" fill="#2F2E41"/>
<path d="M266.185 347.714H167.153L167.063 346.94L167.005 346.425L166.154 339.205L164.949 328.925L164.485 324.974C164.453 324.774 164.421 324.58 164.395 324.381C163.989 321.809 163.757 319.224 163.674 316.646C163.551 313.101 163.712 309.562 164.092 306.069V306.049C164.299 304.161 164.563 302.291 164.891 300.442C165.304 298.063 165.8 295.723 166.373 293.435C167.03 290.78 167.778 288.195 168.596 285.7C169.537 282.781 170.567 279.983 171.63 277.34C171.746 277.057 171.862 276.773 171.972 276.496L171.978 276.49C177.584 262.818 183.949 253.479 183.949 253.479H256.096C256.096 253.479 259.433 268.13 261.089 280.228C261.353 282.142 261.572 283.986 261.733 285.7C262.023 288.865 262.107 291.585 261.856 293.435C261.701 294.582 261.418 295.395 260.98 295.768C257.011 299.159 261.553 306.352 261.553 306.352C261.553 306.352 264.955 311.554 261.991 314.48C261.405 315.06 261.07 315.808 260.909 316.646C260.651 318.032 260.877 319.643 261.231 321.068C261.585 322.498 262.075 323.742 262.346 324.381C262.468 324.664 262.545 324.825 262.545 324.825L263.048 328.802L263.537 332.631L264.369 339.205L264.62 340.366L265.915 346.425L266.024 346.94L266.185 347.714Z" fill="#2F2E41"/>
<path d="M216.162 112.167L185.882 114.864L180.301 132.239L174.22 133.12C163.827 134.626 157.641 145.53 161.679 155.229L167.031 168.08C167.031 168.08 159.17 192.353 168.824 202.552L172.932 247.47L163.665 277.082L271.99 280.58L253.539 243.437L252.992 220.375C252.992 220.375 264.782 178.69 253.851 165.431L249.586 127.718L227.365 124.383L216.162 112.167Z" fill="#2F2E41"/>
<path d="M236.662 89.8759C239.782 76.4119 231.402 62.9667 217.944 59.8451C204.486 56.7235 191.046 65.1076 187.926 78.5716C184.806 92.0355 193.186 105.481 206.644 108.602C220.102 111.724 233.542 103.34 236.662 89.8759Z" fill="#FFB6B6"/>
<path d="M174.776 70.4128C170.968 56.5232 201.681 44.6126 209.746 55.798C210.868 54.2077 215.012 53.2418 216.914 53.7296C218.816 54.2174 220.415 55.437 221.975 56.6175C224.121 58.2663 226.344 59.9737 227.661 62.3444C228.987 64.7054 229.192 67.925 227.407 69.9738C225.993 71.6031 221.819 72.6568 219.693 73.086C218.211 73.3885 216.963 73.6324 215.89 73.808C214.934 72.4129 214.447 70.686 214.622 68.9982C213.179 69.9543 212.204 71.5933 212.048 73.3299C212.018 73.6909 224.033 117.916 224.033 117.916C222.794 118.648 221.263 119.331 219.498 119.955C216.504 115.438 214.047 110.111 212.428 104.54C212.057 107.984 212.116 111.721 212.565 115.516C212.799 117.535 213.15 119.565 213.598 121.594C199.321 124.677 177.847 123.662 168.505 110.55C168.503 110.496 168.502 110.441 168.5 110.387C168.433 107.934 165.087 107.324 164.192 109.609C163.965 110.188 163.757 110.688 163.571 111.087C160.85 101.35 164.37 90.0814 174.776 70.4128Z" fill="#2F2E41"/>
<path d="M388.606 346.94H52.29L0.103088 347.585L366.096 325.725C378.304 324.996 388.606 334.705 388.606 346.94Z" fill="#3F3D56"/>
<path d="M497.79 107.239H444.939C443.721 107.239 442.729 106.25 442.729 105.036C442.729 103.821 443.721 102.833 444.939 102.833H497.79C499.009 102.833 500 103.821 500 105.036C500 106.25 499.009 107.239 497.79 107.239Z" fill="#F2F2F2"/>
<path d="M471.345 114.344C471.147 113.857 470.465 113.857 470.268 114.345C468.89 117.743 466.928 121.549 464.794 124.457C464.452 124.923 464.923 125.545 465.466 125.349L470.04 123.693V152.021H471.572V123.693L476.147 125.349C476.69 125.545 477.161 124.923 476.82 124.458C474.686 121.549 472.724 117.743 471.345 114.344Z" fill="#F2F2F2"/>
<path d="M471.373 179.354C477.716 179.354 482.858 174.21 482.858 167.865C482.858 161.52 477.716 156.376 471.373 156.376C465.031 156.376 459.889 161.52 459.889 167.865C459.889 174.21 465.031 179.354 471.373 179.354Z" fill="#F2F2F2"/>
<path d="M328.344 42.1381H275.493C274.274 42.1381 273.283 41.1496 273.283 39.9348C273.283 38.72 274.274 37.7319 275.493 37.7319H328.344C329.562 37.7319 330.554 38.72 330.554 39.9348C330.554 41.1496 329.562 42.1381 328.344 42.1381Z" fill="#F2F2F2"/>
<path d="M301.898 49.2436C301.701 48.7566 301.019 48.7566 300.821 49.2437C299.443 52.6422 297.481 56.4481 295.348 59.3566C295.006 59.8222 295.477 60.4445 296.02 60.248L300.594 58.5924V86.92H302.125V58.5924L306.701 60.2482C307.244 60.4447 307.715 59.8224 307.373 59.3567C305.239 56.4482 303.277 52.6422 301.898 49.2436Z" fill="#F2F2F2"/>
<path d="M301.927 114.253C308.27 114.253 313.411 109.11 313.411 102.764C313.411 96.419 308.27 91.2751 301.927 91.2751C295.585 91.2751 290.443 96.419 290.443 102.764C290.443 109.11 295.585 114.253 301.927 114.253Z" fill="#F2F2F2"/>
<path d="M168.782 325.385C171.491 320.897 170.052 315.062 165.567 312.351C165.132 312.088 164.677 311.861 164.206 311.671L163.255 264.366L150.112 261.412L151.652 317.589C150.061 322.577 152.814 327.91 157.799 329.501C161.971 330.832 166.511 329.131 168.782 325.385Z" fill="#FFB6B6"/>
<path d="M177.925 138.747C177.925 138.747 161.818 134.879 156.664 145.837C151.51 156.794 151.071 204.477 151.071 204.477L148.288 301.176L168.719 300.275L185.012 181.288L177.925 138.747Z" fill="#2F2E41"/>
<path d="M170.695 339.653C171.058 340.108 171.609 340.372 172.19 340.369H276.783C277.846 340.367 278.707 339.504 278.705 338.441C278.705 338.309 278.691 338.177 278.664 338.048L277.041 330.333C276.904 329.694 276.453 329.167 275.842 328.934C275.625 328.849 275.393 328.805 275.159 328.805H173.807C173.574 328.805 173.342 328.849 173.124 328.934C172.514 329.167 172.063 329.694 171.926 330.333L170.302 338.048C170.185 338.615 170.33 339.205 170.695 339.653Z" fill="#CCCCCC"/>
<path d="M130.653 166.936V287.637C130.656 290.84 133.25 293.436 136.452 293.438H315.24C318.442 293.436 321.036 290.84 321.039 287.637V166.936C321.031 163.737 318.438 161.146 315.24 161.142H136.452C133.253 161.146 130.661 163.737 130.653 166.936Z" fill="#E6E6E6"/>
<path d="M248.203 267.627C247.991 267.556 247.765 267.524 247.54 267.524H205.713C204.482 267.524 203.477 268.523 203.477 269.754V335.86H249.769V269.754C249.769 268.781 249.138 267.917 248.203 267.627ZM231.426 300.139C231.413 302.872 229.191 305.076 226.459 305.063C223.747 305.044 221.556 302.852 221.543 300.139V292.468C221.569 289.742 223.805 287.55 226.53 287.576C229.223 287.602 231.401 289.781 231.426 292.468V300.139Z" fill="#CCCCCC"/>
</g>
<defs>
<clipPath id="clip0_7_173">
<rect width="500" height="347" fill="white" transform="translate(0 0.713745)"/>
</clipPath>
</defs>
</svg>
