<svg width="159" height="319" viewBox="0 0 159 319" fill="none" xmlns="http://www.w3.org/2000/svg">
<g clip-path="url(#clip0_37_136)">
<path d="M130.56 215.075L144.059 199.648L144.2 199.771L146.683 196.934L146.542 196.811L150.687 192.075C150.842 191.898 150.96 191.692 151.035 191.47C151.11 191.247 151.141 191.012 151.125 190.777C151.109 190.543 151.048 190.314 150.943 190.104C150.839 189.893 150.694 189.705 150.517 189.551L140.478 180.791C140.301 180.636 140.095 180.518 139.872 180.443C139.649 180.368 139.414 180.337 139.179 180.353C138.944 180.369 138.715 180.43 138.504 180.535C138.293 180.639 138.105 180.784 137.95 180.961L135.06 184.263L134.832 184.072L133.14 186.095L133.323 186.248L132.94 186.686L132.745 186.523L131.054 188.546L131.203 188.67L117.823 203.961C117.668 204.137 117.549 204.343 117.474 204.565C117.398 204.788 117.368 205.023 117.383 205.258C117.399 205.492 117.461 205.722 117.566 205.932C117.671 206.143 117.816 206.33 117.993 206.485L128.032 215.245C128.39 215.556 128.857 215.713 129.331 215.681C129.805 215.65 130.247 215.431 130.56 215.075Z" fill="#3F3D56"/>
<path d="M118.229 205.6C118.143 205.446 118.107 205.269 118.126 205.093C118.145 204.918 118.217 204.753 118.333 204.62L138.673 181.377C138.823 181.206 139.034 181.101 139.261 181.086C139.489 181.071 139.712 181.146 139.884 181.296L142.02 183.159L141.936 183.201C141.791 183.274 141.666 183.381 141.573 183.513C141.479 183.646 141.419 183.799 141.399 183.96C141.378 184.12 141.398 184.284 141.455 184.435C141.513 184.587 141.607 184.722 141.729 184.828L146.469 188.965C146.596 189.058 146.743 189.12 146.898 189.145C147.053 189.171 147.212 189.16 147.362 189.113C147.51 189.067 147.645 188.987 147.755 188.879C147.866 188.771 147.95 188.638 147.999 188.492L148.03 188.404L150.236 190.329C150.407 190.479 150.512 190.69 150.527 190.917C150.542 191.144 150.467 191.367 150.318 191.539L130.912 213.714C130.514 214.168 129.952 214.445 129.35 214.486C128.747 214.526 128.153 214.326 127.698 213.93L118.415 205.829C118.34 205.764 118.277 205.687 118.229 205.6Z" fill="white"/>
<path d="M138.728 196.436C140.602 196.436 142.121 194.919 142.121 193.048C142.121 191.177 140.602 189.66 138.728 189.66C136.854 189.66 135.335 191.177 135.335 193.048C135.335 194.919 136.854 196.436 138.728 196.436Z" fill="#E74242"/>
<path d="M136.163 206.05L126.761 197.846C126.732 197.82 126.708 197.789 126.69 197.754C126.673 197.719 126.663 197.681 126.66 197.643C126.657 197.604 126.662 197.565 126.675 197.528C126.687 197.491 126.707 197.457 126.733 197.427C126.758 197.398 126.79 197.374 126.825 197.357C126.859 197.339 126.898 197.329 126.936 197.327C126.975 197.324 127.015 197.329 127.051 197.342C127.088 197.354 127.123 197.374 127.152 197.4L136.554 205.604C136.583 205.629 136.607 205.661 136.625 205.695C136.642 205.73 136.653 205.768 136.655 205.807C136.658 205.846 136.653 205.885 136.64 205.922C136.628 205.959 136.608 205.993 136.583 206.023C136.557 206.052 136.526 206.076 136.491 206.093C136.456 206.11 136.418 206.121 136.379 206.123C136.34 206.126 136.301 206.121 136.264 206.108C136.227 206.096 136.193 206.076 136.163 206.05Z" fill="white"/>
<path d="M132.127 204.305L129.034 201.606C128.975 201.554 128.939 201.481 128.934 201.403C128.928 201.325 128.954 201.247 129.006 201.188C129.058 201.129 129.131 201.093 129.21 201.087C129.288 201.082 129.366 201.108 129.425 201.16L132.518 203.858C132.577 203.91 132.613 203.983 132.619 204.062C132.624 204.14 132.598 204.217 132.546 204.277C132.494 204.336 132.421 204.372 132.342 204.377C132.264 204.383 132.186 204.357 132.127 204.305Z" fill="white"/>
<path d="M130.339 206.348L127.246 203.65C127.217 203.624 127.193 203.593 127.176 203.558C127.158 203.523 127.148 203.485 127.145 203.446C127.143 203.408 127.148 203.369 127.16 203.332C127.173 203.295 127.192 203.261 127.218 203.231C127.244 203.202 127.275 203.178 127.31 203.161C127.345 203.144 127.383 203.133 127.422 203.131C127.461 203.128 127.5 203.133 127.536 203.146C127.573 203.158 127.608 203.178 127.637 203.203L130.729 205.902C130.789 205.954 130.825 206.027 130.83 206.105C130.836 206.184 130.809 206.261 130.758 206.32C130.706 206.379 130.633 206.416 130.554 206.421C130.476 206.426 130.398 206.4 130.339 206.348Z" fill="white"/>
<path d="M129.423 207.395L126.33 204.696C126.301 204.671 126.277 204.64 126.259 204.605C126.242 204.57 126.232 204.532 126.229 204.493C126.226 204.454 126.231 204.415 126.244 204.378C126.256 204.341 126.276 204.307 126.302 204.278C126.327 204.248 126.359 204.224 126.394 204.207C126.429 204.19 126.467 204.179 126.506 204.177C126.544 204.174 126.584 204.179 126.621 204.192C126.657 204.204 126.692 204.224 126.721 204.25L129.814 206.949C129.843 206.974 129.867 207.005 129.884 207.04C129.901 207.075 129.912 207.113 129.914 207.152C129.917 207.191 129.912 207.23 129.899 207.266C129.887 207.303 129.867 207.337 129.842 207.367C129.816 207.396 129.785 207.42 129.75 207.437C129.715 207.455 129.677 207.465 129.638 207.467C129.599 207.47 129.56 207.465 129.523 207.453C129.486 207.44 129.452 207.42 129.423 207.395Z" fill="white"/>
<path d="M132.98 206.826L126.418 201.1C126.389 201.074 126.365 201.043 126.348 201.008C126.33 200.974 126.32 200.936 126.317 200.897C126.314 200.858 126.32 200.819 126.332 200.782C126.344 200.745 126.364 200.711 126.39 200.681C126.415 200.652 126.447 200.628 126.482 200.611C126.517 200.594 126.555 200.583 126.594 200.581C126.633 200.578 126.672 200.583 126.709 200.596C126.746 200.608 126.78 200.628 126.809 200.654L133.371 206.379C133.4 206.405 133.424 206.436 133.441 206.471C133.458 206.506 133.469 206.544 133.471 206.583C133.474 206.621 133.469 206.66 133.456 206.697C133.444 206.734 133.424 206.768 133.399 206.797C133.373 206.827 133.342 206.851 133.307 206.868C133.272 206.885 133.234 206.896 133.195 206.898C133.156 206.901 133.117 206.896 133.08 206.883C133.043 206.871 133.009 206.851 132.98 206.826Z" fill="white"/>
<path d="M126.439 208.571L125.316 207.591C125.267 207.547 125.226 207.494 125.196 207.435C125.167 207.376 125.149 207.311 125.145 207.245C125.141 207.179 125.149 207.113 125.17 207.05C125.192 206.987 125.225 206.929 125.269 206.88C125.312 206.83 125.365 206.789 125.425 206.76C125.484 206.73 125.549 206.713 125.615 206.708C125.681 206.704 125.747 206.713 125.81 206.734C125.873 206.755 125.931 206.788 125.981 206.832L127.104 207.812C127.204 207.9 127.266 208.024 127.275 208.157C127.284 208.291 127.24 208.422 127.151 208.523C127.063 208.623 126.939 208.685 126.805 208.694C126.672 208.703 126.54 208.659 126.439 208.571Z" fill="white"/>
<path d="M112.256 190.238C111.686 189.672 111.248 188.988 110.972 188.235C110.696 187.482 110.588 186.678 110.657 185.878C110.726 185.079 110.969 184.305 111.37 183.61C111.771 182.915 112.32 182.316 112.977 181.856L104.009 138.511L113.685 141.56L120.901 183.492C121.602 184.646 121.855 186.018 121.611 187.346C121.367 188.674 120.644 189.867 119.579 190.699C118.513 191.53 117.179 191.943 115.83 191.858C114.48 191.773 113.208 191.196 112.256 190.238Z" fill="#9E616A"/>
<path d="M91.5253 74.377L97.5192 69.8589C97.5192 69.8589 102.807 69.485 103.743 79.0069C104.68 88.5288 110.543 125.074 110.543 125.074L119.715 167.494L107.019 170.277L97.1949 124.498L87.3611 92.9151L91.5253 74.377Z" fill="#2F2E41"/>
<path d="M93.0865 152.494L73.524 127.371C73.176 126.923 73.0202 126.355 73.0907 125.793C73.1612 125.23 73.4523 124.718 73.9001 124.37L102.652 102.046C103.101 101.698 103.669 101.542 104.232 101.613C104.796 101.683 105.308 101.974 105.657 102.421L125.219 127.544C125.567 127.992 125.723 128.56 125.653 129.122C125.582 129.685 125.291 130.197 124.843 130.545L96.0916 152.869C95.643 153.217 95.0747 153.373 94.5113 153.302C93.9479 153.232 93.4355 152.941 93.0865 152.494Z" fill="#3F3D56"/>
<path d="M93.5814 150.226L75.8472 127.45C75.5382 127.053 75.3998 126.549 75.4624 126.049C75.525 125.55 75.7835 125.095 76.1811 124.786L102.494 104.355C102.892 104.047 103.397 103.909 103.897 103.971C104.397 104.034 104.852 104.292 105.162 104.689L122.896 127.464C123.205 127.862 123.344 128.366 123.281 128.866C123.219 129.365 122.96 129.819 122.562 130.129L96.2497 150.559C95.8514 150.868 95.3467 151.006 94.8465 150.943C94.3463 150.881 93.8913 150.623 93.5814 150.226Z" fill="white"/>
<path d="M118.446 129.466L109.499 117.977C109.461 117.927 109.433 117.871 109.416 117.811C109.4 117.751 109.395 117.688 109.403 117.626C109.411 117.564 109.43 117.505 109.461 117.45C109.492 117.396 109.533 117.349 109.583 117.31C109.632 117.272 109.688 117.244 109.749 117.227C109.809 117.211 109.872 117.206 109.934 117.214C109.996 117.222 110.055 117.242 110.11 117.273C110.164 117.303 110.212 117.345 110.25 117.394L119.196 128.883C119.235 128.933 119.263 128.989 119.28 129.049C119.297 129.109 119.301 129.172 119.294 129.234C119.286 129.296 119.266 129.356 119.235 129.41C119.204 129.464 119.163 129.512 119.114 129.55C119.064 129.589 119.008 129.617 118.947 129.634C118.887 129.65 118.824 129.655 118.762 129.647C118.7 129.639 118.64 129.619 118.586 129.588C118.532 129.557 118.484 129.516 118.446 129.466Z" fill="#E4E4E4"/>
<path d="M116.963 130.617L108.017 119.128C107.978 119.079 107.95 119.022 107.933 118.962C107.916 118.902 107.912 118.839 107.919 118.777C107.927 118.715 107.947 118.655 107.978 118.601C108.009 118.547 108.05 118.499 108.099 118.461C108.149 118.422 108.205 118.394 108.265 118.378C108.326 118.361 108.389 118.357 108.451 118.365C108.513 118.372 108.573 118.392 108.627 118.423C108.681 118.454 108.729 118.496 108.767 118.545L117.714 130.035C117.791 130.134 117.825 130.26 117.809 130.385C117.793 130.509 117.729 130.623 117.629 130.7C117.53 130.777 117.404 130.812 117.279 130.796C117.154 130.781 117.041 130.716 116.963 130.617Z" fill="#E4E4E4"/>
<path d="M110.412 125.26L106.534 120.279C106.495 120.23 106.467 120.174 106.45 120.114C106.434 120.053 106.429 119.99 106.437 119.929C106.444 119.867 106.464 119.807 106.495 119.752C106.526 119.698 106.567 119.65 106.617 119.612C106.666 119.574 106.722 119.546 106.783 119.529C106.843 119.513 106.906 119.508 106.968 119.516C107.03 119.524 107.09 119.544 107.144 119.575C107.198 119.606 107.246 119.647 107.284 119.696L111.162 124.677C111.24 124.776 111.274 124.902 111.259 125.027C111.243 125.152 111.178 125.266 111.079 125.343C110.979 125.42 110.853 125.455 110.728 125.439C110.603 125.423 110.489 125.359 110.412 125.26Z" fill="#E4E4E4"/>
<path d="M108.413 135.033L94.2891 116.895C94.2506 116.846 94.2222 116.789 94.2055 116.729C94.1888 116.669 94.1842 116.606 94.1919 116.544C94.1995 116.482 94.2194 116.422 94.2503 116.368C94.2812 116.314 94.3225 116.266 94.3718 116.228C94.4212 116.19 94.4776 116.161 94.5379 116.145C94.5982 116.128 94.6612 116.124 94.7232 116.132C94.7852 116.14 94.8451 116.159 94.8994 116.19C94.9537 116.221 95.0013 116.263 95.0396 116.312L109.163 134.451C109.202 134.5 109.23 134.556 109.247 134.616C109.263 134.676 109.268 134.739 109.26 134.801C109.253 134.863 109.233 134.923 109.202 134.977C109.171 135.032 109.13 135.079 109.08 135.118C109.031 135.156 108.975 135.184 108.914 135.201C108.854 135.217 108.791 135.222 108.729 135.214C108.667 135.206 108.607 135.186 108.553 135.155C108.499 135.124 108.451 135.083 108.413 135.033Z" fill="#E4E4E4"/>
<path d="M106.93 136.185L92.8063 118.046C92.729 117.947 92.6944 117.821 92.7101 117.696C92.7258 117.571 92.7904 117.457 92.8899 117.38C92.9894 117.303 93.1156 117.268 93.2406 117.284C93.3657 117.3 93.4794 117.364 93.5569 117.463L107.68 135.602C107.719 135.651 107.747 135.707 107.764 135.767C107.78 135.828 107.785 135.89 107.777 135.952C107.769 136.014 107.749 136.074 107.719 136.128C107.688 136.182 107.646 136.23 107.597 136.268C107.548 136.306 107.491 136.335 107.431 136.351C107.371 136.368 107.308 136.372 107.246 136.364C107.184 136.357 107.124 136.337 107.07 136.306C107.016 136.275 106.968 136.234 106.93 136.185Z" fill="#E4E4E4"/>
<path d="M103.564 138.798L89.4405 120.66C89.402 120.61 89.3736 120.554 89.3569 120.494C89.3402 120.434 89.3356 120.371 89.3433 120.309C89.351 120.247 89.3708 120.187 89.4017 120.133C89.4326 120.079 89.4739 120.031 89.5232 119.993C89.5726 119.954 89.629 119.926 89.6893 119.909C89.7496 119.893 89.8126 119.888 89.8746 119.896C89.9366 119.904 89.9965 119.924 90.0508 119.955C90.1051 119.986 90.1527 120.027 90.191 120.077L104.315 138.215C104.353 138.264 104.381 138.321 104.398 138.381C104.414 138.441 104.419 138.504 104.411 138.566C104.403 138.627 104.384 138.687 104.353 138.741C104.322 138.796 104.281 138.843 104.231 138.881C104.182 138.92 104.126 138.948 104.065 138.964C104.005 138.981 103.942 138.986 103.88 138.978C103.818 138.97 103.759 138.95 103.704 138.919C103.65 138.888 103.602 138.847 103.564 138.798Z" fill="#E4E4E4"/>
<path d="M102.081 139.949L87.9577 121.811C87.8804 121.711 87.8458 121.585 87.8615 121.461C87.8771 121.336 87.9418 121.222 88.0413 121.145C88.1408 121.068 88.267 121.033 88.392 121.049C88.5171 121.064 88.6308 121.129 88.7082 121.228L102.832 139.366C102.909 139.466 102.944 139.592 102.928 139.717C102.912 139.842 102.848 139.955 102.748 140.032C102.649 140.11 102.523 140.144 102.398 140.129C102.272 140.113 102.159 140.048 102.081 139.949Z" fill="#E4E4E4"/>
<path d="M98.7154 142.563L84.5919 124.424C84.5535 124.375 84.5253 124.319 84.5087 124.259C84.4921 124.198 84.4876 124.136 84.4953 124.074C84.503 124.012 84.5229 123.952 84.5538 123.898C84.5846 123.844 84.6259 123.796 84.6752 123.758C84.7245 123.72 84.7809 123.691 84.8411 123.675C84.9013 123.658 84.9642 123.654 85.0261 123.662C85.0881 123.669 85.1479 123.689 85.2021 123.72C85.2564 123.751 85.304 123.792 85.3423 123.841L99.4659 141.98C99.5043 142.029 99.5326 142.085 99.5491 142.145C99.5657 142.206 99.5702 142.268 99.5625 142.33C99.5548 142.392 99.5349 142.452 99.504 142.506C99.4732 142.56 99.4319 142.608 99.3826 142.646C99.3333 142.684 99.2769 142.713 99.2167 142.729C99.1565 142.746 99.0936 142.75 99.0317 142.742C98.9697 142.735 98.9099 142.715 98.8557 142.684C98.8014 142.653 98.7538 142.612 98.7154 142.563Z" fill="#E4E4E4"/>
<path d="M97.2327 143.714L83.1091 125.576C83.0707 125.526 83.0425 125.47 83.0259 125.41C83.0093 125.35 83.0048 125.287 83.0125 125.225C83.0202 125.163 83.0401 125.104 83.071 125.049C83.1019 124.995 83.1431 124.948 83.1924 124.909C83.2417 124.871 83.2981 124.843 83.3583 124.826C83.4185 124.81 83.4814 124.805 83.5433 124.813C83.6053 124.821 83.6651 124.841 83.7194 124.872C83.7737 124.902 83.8213 124.944 83.8596 124.993L97.9832 143.131C98.0602 143.231 98.0946 143.356 98.0788 143.481C98.063 143.606 97.9984 143.719 97.899 143.796C97.7996 143.874 97.6737 143.908 97.5488 143.893C97.4238 143.877 97.3102 143.813 97.2327 143.714Z" fill="#E4E4E4"/>
<path d="M121.505 164.862C121.613 164.862 121.7 164.775 121.7 164.667C121.7 164.56 121.613 164.472 121.505 164.472C121.397 164.472 121.31 164.56 121.31 164.667C121.31 164.775 121.397 164.862 121.505 164.862Z" fill="white"/>
<path d="M135.692 215.918H134.289V203.305C134.289 198.783 132.49 194.446 129.288 191.249C126.086 188.051 121.743 186.255 117.214 186.255C112.686 186.255 108.343 188.051 105.141 191.249C101.939 194.446 100.14 198.783 100.14 203.305V215.918H98.7363V203.305C98.7363 198.411 100.683 193.718 104.148 190.258C107.614 186.798 112.314 184.854 117.214 184.854C122.115 184.854 126.815 186.798 130.28 190.258C133.745 193.718 135.692 198.411 135.692 203.305V215.918Z" fill="#2F2E41"/>
<path d="M156.579 204.482C156.114 202.481 154.981 200.696 153.367 199.422C151.753 198.147 149.753 197.457 147.696 197.466H84.0662C81.8857 197.473 79.779 198.256 78.1249 199.675C76.4709 201.093 75.3779 203.055 75.0425 205.206C74.0877 211.846 73.7728 218.561 74.1022 225.26C74.2098 227.839 74.4016 230.486 74.6776 233.202C74.8554 234.977 75.0674 236.783 75.3138 238.62C75.6153 240.804 76.6968 242.806 78.3593 244.257C80.0218 245.707 82.1532 246.509 84.3609 246.515H147.574C149.649 246.525 151.665 245.824 153.285 244.529C154.905 243.234 156.031 241.424 156.476 239.4C156.944 237.326 157.331 235.26 157.636 233.202C158.034 230.569 158.299 227.919 158.432 225.26C158.792 218.282 158.168 211.288 156.579 204.482Z" fill="#E74242"/>
<path d="M135.692 211.947H134.289V199.335C134.289 194.813 132.49 190.476 129.288 187.278C126.086 184.081 121.743 182.284 117.214 182.284C112.686 182.284 108.343 184.081 105.141 187.278C101.939 190.476 100.14 194.813 100.14 199.335V211.947H98.7363V199.335C98.7363 194.441 100.683 189.748 104.148 186.287C107.614 182.827 112.314 180.883 117.214 180.883C122.115 180.883 126.815 182.827 130.28 186.287C133.745 189.748 135.692 194.441 135.692 199.335V211.947Z" fill="#2F2E41"/>
<path d="M118.398 201.007L116.059 196.962C115.842 196.557 115.508 196.228 115.1 196.016C114.693 195.804 114.231 195.72 113.774 195.774C113.318 195.829 112.889 196.019 112.543 196.321C112.197 196.623 111.95 197.022 111.835 197.466V202.137C111.835 202.571 112.007 202.987 112.314 203.294C112.621 203.6 113.038 203.772 113.472 203.772C113.906 203.772 114.322 203.6 114.63 203.294C114.937 202.987 115.109 202.571 115.109 202.137V201.858L115.562 202.642C115.779 203.018 116.137 203.292 116.557 203.404C116.976 203.516 117.423 203.457 117.799 203.241C118.175 203.024 118.449 202.667 118.562 202.248C118.674 201.829 118.615 201.383 118.398 201.007Z" fill="#2F2E41"/>
<path d="M99.9057 214.75C101.456 214.75 102.713 213.495 102.713 211.947C102.713 210.399 101.456 209.145 99.9057 209.145C98.3556 209.145 97.099 210.399 97.099 211.947C97.099 213.495 98.3556 214.75 99.9057 214.75Z" fill="#2F2E41"/>
<path d="M134.756 214.983C136.307 214.983 137.563 213.729 137.563 212.181C137.563 210.633 136.307 209.378 134.756 209.378C133.206 209.378 131.95 210.633 131.95 212.181C131.95 213.729 133.206 214.983 134.756 214.983Z" fill="#2F2E41"/>
<path d="M158.432 225.26C158.299 227.919 158.034 230.57 157.636 233.202H74.6776C74.4016 230.483 74.2098 227.836 74.1022 225.26H158.432Z" fill="#3F3D56"/>
<path d="M59.9093 27.197C63.7846 27.197 66.9262 24.0599 66.9262 20.1901C66.9262 16.3202 63.7846 13.1831 59.9093 13.1831C56.0339 13.1831 52.8923 16.3202 52.8923 20.1901C52.8923 24.0599 56.0339 27.197 59.9093 27.197Z" fill="#2F2E41"/>
<path d="M71.1363 53.8235C80.9539 53.8235 88.9126 45.8761 88.9126 36.0725C88.9126 26.2689 80.9539 18.3215 71.1363 18.3215C61.3188 18.3215 53.3601 26.2689 53.3601 36.0725C53.3601 45.8761 61.3188 53.8235 71.1363 53.8235Z" fill="#2F2E41"/>
<path d="M61.9849 303.932H70.3496L74.3305 271.715H61.9849V303.932Z" fill="#9E616A"/>
<path d="M59.2553 298.212L72.6187 297.415V303.133L85.3235 311.895C85.9511 312.327 86.4237 312.949 86.6724 313.669C86.9211 314.389 86.9328 315.169 86.7059 315.896C86.4789 316.623 86.0252 317.259 85.4109 317.71C84.7966 318.161 84.054 318.405 83.2914 318.405H67.3818L64.6395 312.749L63.5689 318.405H57.5703L59.2553 298.212Z" fill="#2F2E41"/>
<path d="M12.2911 293.392L19.0035 298.376L41.4497 274.895L31.5432 267.539L12.2911 293.392Z" fill="#9E616A"/>
<path d="M13.5192 287.174L24.7186 294.498L21.3022 299.086L26.2614 313.687C26.5064 314.408 26.5142 315.189 26.2836 315.915C26.0529 316.641 25.596 317.274 24.9794 317.722C24.3629 318.17 23.619 318.41 22.8564 318.406C22.0938 318.402 21.3524 318.155 20.7405 317.7L7.97382 308.22L9.15269 302.048L4.9141 305.948L0.100555 302.374L13.5192 287.174Z" fill="#2F2E41"/>
<path d="M89.3804 125.761H57.5703V155.658H89.3804V125.761Z" fill="#9E616A"/>
<path d="M52.2468 137.708C52.2468 137.708 36.3763 151.4 43.6987 190.432L52.6383 228.677L23.4839 276.975L32.7798 288.268L70.6812 235.991L84.4156 203.82L91.6804 147.438L52.2468 137.708Z" fill="#2F2E41"/>
<path d="M76.8458 212.988L77.8002 227.751L74.8788 290.659L61.1326 288.268L58.506 243.478L76.8458 212.988Z" fill="#2F2E41"/>
<path d="M81.1107 58.7366L65.7624 59.3345L59.645 69.474L45.6893 72.1946L54.0207 114.283L45.7922 144.829L75.3592 157.75L81.9387 138.06L90.6828 161.93L104.722 146.687L93.1668 117.261L99.1442 94.047L97.8007 69.7057L86.5737 68.3043L81.1107 58.7366Z" fill="#2F2E41"/>
<path d="M72.6073 53.8191C80.5852 53.8191 87.0525 47.3609 87.0525 39.3944C87.0525 31.4279 80.5852 24.9697 72.6073 24.9697C64.6295 24.9697 58.1621 31.4279 58.1621 39.3944C58.1621 47.3609 64.6295 53.8191 72.6073 53.8191Z" fill="#9E616A"/>
<path d="M82.4171 24.6904C79.8859 23.1494 76.9865 22.3159 74.0222 22.2768C71.058 22.2378 68.1376 22.9948 65.5666 24.4685C62.9955 25.9423 60.8682 28.0788 59.4071 30.6545C57.9459 33.2303 57.2046 36.1508 57.2606 39.1106C64.6211 40.956 72.3539 42.3682 80.2034 39.552L82.0571 35.0216L83.15 39.5553C85.5404 40.531 87.937 41.3565 90.3337 39.5459C90.4315 36.5945 89.7519 33.6691 88.3626 31.0621C86.9734 28.4552 84.9232 26.2581 82.4171 24.6904Z" fill="#2F2E41"/>
<path d="M53.3761 1.1688C48.5239 -1.05284 42.4358 -0.0103737 38.3956 3.47326C34.3554 6.9569 32.4346 12.6266 33.2146 17.8997C34.0103 23.2791 37.2852 27.9115 40.304 32.4372C43.3228 36.9628 46.272 41.922 46.2687 47.3597C46.2663 51.2763 44.7085 55.032 41.9371 57.8033C39.1656 60.5746 35.4067 62.1353 31.4846 62.1431C36.0878 64.122 40.8923 66.1397 45.8985 65.9051C50.9047 65.6705 56.1519 62.4567 56.9685 57.5191C57.557 53.9613 55.809 50.492 54.3511 47.1929C51.9764 41.8172 50.26 36.1751 49.239 30.3888C48.7521 27.6271 48.435 24.7238 49.3367 22.0681C50.0547 20.1002 51.387 18.4147 53.1371 17.2603C54.8872 16.1059 56.9624 15.5436 59.0568 15.6563L60.711 14.1703C61.4468 8.8908 58.2283 3.39041 53.3761 1.1688Z" fill="#2F2E41"/>
<path d="M46.2989 164.533H32.493C32.1816 164.533 31.8737 164.6 31.5911 164.731C31.3084 164.861 31.0576 165.052 30.8564 165.289C30.3472 165.196 29.8231 165.224 29.327 165.372C28.8309 165.52 28.3771 165.784 28.0028 166.141C27.6284 166.498 27.3442 166.939 27.1736 167.427C27.0029 167.915 26.9505 168.436 27.0208 168.949C27.0912 169.461 27.2821 169.949 27.578 170.373C27.874 170.798 28.2664 171.146 28.7232 171.389C29.18 171.632 29.688 171.764 30.2057 171.773C30.7234 171.783 31.2359 171.669 31.7011 171.443L33.3139 184.968C33.4496 185.408 33.723 185.794 34.0942 186.067C34.4653 186.341 34.9145 186.489 35.3759 186.489H44.3519C44.8132 186.489 45.2624 186.341 45.6335 186.067C46.0045 185.794 46.278 185.408 46.4136 184.968L48.3608 167.321C48.4601 166.999 48.4822 166.658 48.4255 166.326C48.3688 165.993 48.2347 165.679 48.0342 165.408C47.8336 165.137 47.5721 164.916 47.2707 164.764C46.9694 164.613 46.6365 164.533 46.2989 164.533ZM30.274 170.84C29.6536 170.84 29.0587 170.594 28.6201 170.156C28.1814 169.718 27.935 169.124 27.935 168.504C27.935 167.885 28.1814 167.291 28.6201 166.853C29.0587 166.414 29.6536 166.168 30.274 166.168C30.3167 166.168 30.3564 166.179 30.3987 166.181C30.3057 166.557 30.3169 166.951 30.4313 167.321L31.4192 170.528C31.0712 170.73 30.6764 170.837 30.274 170.84Z" fill="#E74242"/>
<path d="M34.8256 186.501C35.3922 185.932 35.8269 185.246 36.0994 184.492C36.3718 183.737 36.4752 182.932 36.4024 182.133C36.3295 181.335 36.0822 180.562 35.6777 179.869C35.2733 179.176 34.7216 178.58 34.0616 178.122L42.8096 134.733L33.149 137.831L26.1467 179.799C25.4513 180.957 25.2054 182.33 25.4558 183.657C25.7062 184.984 26.4353 186.173 27.5051 186.999C28.5749 187.825 29.911 188.231 31.2602 188.139C32.6094 188.047 33.878 187.464 34.8256 186.501Z" fill="#9E616A"/>
<path d="M51.683 76.7127L45.6891 72.1946C45.6891 72.1946 40.4016 71.8207 39.4651 81.3426C38.5286 90.8645 32.6652 127.409 32.6652 127.409L23.4933 169.83L36.1897 172.612L46.0134 126.834L55.8472 95.2508L51.683 76.7127Z" fill="#2F2E41"/>
<path d="M103.414 116.21C105.288 116.21 106.807 114.693 106.807 112.822C106.807 110.951 105.288 109.434 103.414 109.434C101.54 109.434 100.021 110.951 100.021 112.822C100.021 114.693 101.54 116.21 103.414 116.21Z" fill="#E74242"/>
</g>
<defs>
<clipPath id="clip0_37_136">
<rect width="159" height="319" fill="white"/>
</clipPath>
</defs>
</svg>
